# Blender 5.0.1
# www.blender.org
mtllib cornell_embree_tri_divs.mtl
o back_wall
v 549.599976 0.000084 559.200012
v 0.000000 0.000084 559.200012
v 0.000000 548.800110 559.199890
v 556.000000 548.800110 559.199890
vn -0.0000 -0.0000 -1.0000
s 1
usemtl white
f 1//1 3//1 4//1
f 1//1 2//1 3//1
o ceiling
v 556.000000 548.799988 -0.000082
v 556.000000 548.800110 559.199890
v 0.000000 548.800110 559.199890
v 0.000000 548.799988 -0.000082
vn -0.0000 -1.0000 -0.0000
s 1
usemtl white
f 6//2 8//2 5//2
f 6//2 7//2 8//2
o floor
v 552.799988 0.000000 0.000000
v 0.000000 0.000000 0.000000
v 0.000000 0.000084 559.200012
v 549.599976 0.000084 559.200012
v 130.000000 0.000010 65.000000
v 82.000000 0.000034 225.000000
v 240.000000 0.000042 272.000000
v 290.000000 0.000018 114.000000
v 423.000000 0.000038 247.000000
v 265.000000 0.000044 296.000000
v 314.000000 0.000068 456.000000
v 472.000000 0.000062 406.000000
vn -0.0000 1.0000 -0.0000
vn -0.0000 -1.0000 -0.0000
s 1
usemtl white
f 10//3 12//3 9//3
f 15//4 13//4 16//4
f 20//4 18//4 17//4
f 10//3 11//3 12//3
f 15//4 14//4 13//4
f 20//4 19//4 18//4
o green_wall
v 0.000000 0.000084 559.200012
v 0.000000 0.000000 0.000000
v 0.000000 548.799988 -0.000082
v 0.000000 548.800110 559.199890
vn 1.0000 -0.0000 -0.0000
s 1
usemtl green
f 22//5 24//5 21//5
f 22//5 23//5 24//5
o light
v 343.000000 548.000000 226.999908
v 343.000000 548.000000 331.999939
v 213.000000 548.000000 331.999939
v 213.000000 548.000000 226.999908
vn -0.0000 -1.0000 -0.0000
s 1
usemtl light
f 26//6 28//6 25//6
f 26//6 27//6 28//6
o red_wall
v 552.799988 0.000000 0.000000
v 549.599976 0.000084 559.200012
v 556.000000 548.800110 559.199890
v 556.000000 548.799988 -0.000082
vn -1.0000 0.0087 -0.0028
vn -1.0000 0.0088 -0.0029
vn -1.0000 0.0058 -0.0000
vn -0.9999 0.0117 -0.0057
s 1
usemtl red
f 29//7 31//8 32//9
f 29//7 30//10 31//8
o short_block
v 130.000000 165.000000 64.999969
v 82.000000 165.000031 224.999969
v 240.000000 165.000031 272.000000
v 290.000000 165.000031 113.999969
v 290.000000 0.000018 114.000000
v 290.000000 165.000031 113.999969
v 240.000000 165.000031 272.000000
v 240.000000 0.000042 272.000000
v 130.000000 0.000010 65.000000
v 130.000000 165.000000 64.999969
v 290.000000 165.000031 113.999969
v 290.000000 0.000018 114.000000
v 82.000000 0.000034 225.000000
v 82.000000 165.000031 224.999969
v 130.000000 165.000000 64.999969
v 130.000000 0.000010 65.000000
v 240.000000 0.000042 272.000000
v 240.000000 165.000031 272.000000
v 82.000000 165.000031 224.999969
v 82.000000 0.000034 225.000000
v 210.000000 165.000000 89.499969
v 185.000000 165.000015 168.499985
v 265.000000 165.000031 192.999985
v 290.000000 82.500015 113.999985
v 265.000000 82.500031 193.000000
v 265.000000 0.000030 193.000000
v 130.000000 82.500015 64.999985
v 210.000000 82.500015 89.499985
v 210.000000 0.000014 89.500000
v 82.000000 82.500031 225.000000
v 106.000000 82.500015 145.000000
v 106.000000 0.000022 145.000000
v 240.000000 82.500046 272.000000
v 161.000000 82.500031 248.500000
v 161.000000 0.000038 248.500000
v 106.000000 165.000015 144.999969
v 161.000000 165.000031 248.499985
v 265.000000 165.000031 192.999985
v 240.000000 82.500038 272.000000
v 210.000000 165.000000 89.499969
v 290.000000 82.500023 113.999985
v 106.000000 165.000015 144.999969
v 130.000000 82.500008 64.999985
v 161.000000 165.000031 248.499985
v 82.000000 82.500031 225.000000
v 250.000000 165.000015 101.749969
v 212.500000 165.000015 220.249985
v 277.500000 165.000031 153.499985
v 290.000000 123.750023 113.999977
v 252.500000 41.250038 232.500000
v 252.500000 0.000036 232.500000
v 130.000000 123.750008 64.999977
v 250.000000 41.250015 101.750000
v 250.000000 0.000016 101.750000
v 82.000000 123.750031 224.999985
v 118.000000 41.250015 105.000000
v 118.000000 0.000016 105.000000
v 240.000000 123.750038 272.000000
v 121.500000 41.250034 236.750000
v 121.500000 0.000036 236.750000
v 94.000000 165.000015 184.999969
v 200.500000 165.000031 260.250000
v 252.500000 165.000031 232.499985
v 240.000000 41.250038 272.000000
v 250.000000 165.000015 101.749969
v 290.000000 41.250019 114.000000
v 118.000000 165.000015 104.999969
v 130.000000 41.250008 65.000000
v 121.500000 165.000031 236.749985
v 82.000000 41.250031 225.000000
v 170.000000 165.000000 77.249969
v 157.500000 165.000015 116.749977
v 252.500000 165.000031 232.499985
v 290.000000 41.250015 114.000000
v 277.500000 123.750031 153.499985
v 277.500000 0.000024 153.500000
v 130.000000 41.250008 65.000000
v 170.000000 123.750008 77.249977
v 170.000000 0.000012 77.250000
v 82.000000 41.250031 225.000000
v 94.000000 123.750031 184.999985
v 94.000000 0.000028 185.000000
v 240.000000 41.250042 272.000000
v 200.500000 123.750038 260.250000
v 200.500000 0.000040 260.250000
v 118.000000 165.000015 104.999969
v 121.500000 165.000031 236.749985
v 277.500000 165.000031 153.499985
v 240.000000 123.750038 272.000000
v 170.000000 165.000000 77.249969
v 290.000000 123.750023 113.999977
v 94.000000 165.000015 184.999969
v 130.000000 123.750008 64.999977
v 200.500000 165.000031 260.250000
v 82.000000 123.750031 224.999985
v 121.500000 82.500031 236.750000
v 161.000000 123.750031 248.499985
v 121.500000 123.750031 236.749985
v 118.000000 82.500008 104.999992
v 106.000000 123.750008 144.999985
v 118.000000 123.750008 104.999977
v 250.000000 82.500023 101.749985
v 210.000000 123.750008 89.499977
v 250.000000 123.750015 101.749977
v 252.500000 82.500031 232.500000
v 265.000000 123.750031 192.999985
v 252.500000 123.750031 232.499985
v 173.000000 165.000015 208.499985
v 145.500000 165.000015 156.749985
v 133.500000 165.000015 196.749985
v 200.500000 41.250038 260.250000
v 200.500000 82.500038 260.250000
v 161.000000 41.250038 248.500000
v 94.000000 41.250027 185.000000
v 94.000000 82.500031 185.000000
v 106.000000 41.250023 145.000000
v 170.000000 41.250015 77.250000
v 170.000000 82.500015 77.249985
v 210.000000 41.250015 89.500000
v 277.500000 41.250023 153.500000
v 277.500000 82.500031 153.500000
v 265.000000 41.250031 193.000000
v 237.500000 165.000015 141.249985
v 197.500000 165.000015 128.999985
v 225.000000 165.000015 180.749985
vn -0.0000 1.0000 -0.0000
vn 0.9534 -0.0000 0.3017
vn 0.2928 -0.0000 -0.9562
vn -0.9578 -0.0000 -0.2873
vn -0.2851 -0.0000 0.9585
s 1
usemtl white
f 33//11 104//11 103//11
f 38//12 107//12 81//12
f 42//13 110//13 84//13
f 46//14 113//14 87//14
f 50//15 116//15 90//15
f 33//11 118//11 104//11
f 38//12 120//12 107//12
f 42//13 122//13 110//13
f 46//14 124//14 113//14
f 50//15 126//15 116//15
f 66//15 128//15 91//15
f 66//15 129//15 128//15
f 76//15 101//15 130//15
f 63//14 131//14 88//14
f 63//14 132//14 131//14
f 74//14 99//14 133//14
f 60//13 134//13 85//13
f 60//13 135//13 134//13
f 72//13 97//13 136//13
f 57//12 137//12 82//12
f 57//12 138//12 137//12
f 70//12 95//12 139//12
f 54//11 140//11 79//11
f 54//11 141//11 140//11
f 68//11 93//11 142//11
f 65//15 143//15 115//15
f 65//15 144//15 143//15
f 66//15 91//15 145//15
f 62//14 146//14 112//14
f 62//14 147//14 146//14
f 63//14 88//14 148//14
f 59//13 149//13 109//13
f 59//13 150//13 149//13
f 60//13 85//13 151//13
f 56//12 152//12 106//12
f 56//12 153//12 152//12
f 57//12 82//12 154//12
f 53//11 155//11 78//11
f 53//11 156//11 155//11
f 54//11 79//11 157//11
f 157//11 105//11 55//11
f 157//11 79//11 105//11
f 79//11 35//11 105//11
f 155//11 157//11 55//11
f 155//11 156//11 157//11
f 156//11 54//11 157//11
f 78//11 80//11 36//11
f 78//11 155//11 80//11
f 155//11 55//11 80//11
f 154//12 83//12 58//12
f 154//12 82//12 83//12
f 82//12 40//12 83//12
f 152//12 154//12 58//12
f 152//12 153//12 154//12
f 153//12 57//12 154//12
f 106//12 108//12 37//12
f 106//12 152//12 108//12
f 152//12 58//12 108//12
f 151//13 86//13 61//13
f 151//13 85//13 86//13
f 85//13 44//13 86//13
f 149//13 151//13 61//13
f 149//13 150//13 151//13
f 150//13 60//13 151//13
f 109//13 111//13 41//13
f 109//13 149//13 111//13
f 149//13 61//13 111//13
f 148//14 89//14 64//14
f 148//14 88//14 89//14
f 88//14 48//14 89//14
f 146//14 148//14 64//14
f 146//14 147//14 148//14
f 147//14 63//14 148//14
f 112//14 114//14 45//14
f 112//14 146//14 114//14
f 146//14 64//14 114//14
f 145//15 92//15 67//15
f 145//15 91//15 92//15
f 91//15 52//15 92//15
f 143//15 145//15 67//15
f 143//15 144//15 145//15
f 144//15 66//15 145//15
f 115//15 117//15 49//15
f 115//15 143//15 117//15
f 143//15 67//15 117//15
f 142//11 119//11 69//11
f 142//11 93//11 119//11
f 93//11 34//11 119//11
f 140//11 142//11 69//11
f 140//11 141//11 142//11
f 141//11 68//11 142//11
f 79//11 94//11 35//11
f 79//11 140//11 94//11
f 140//11 69//11 94//11
f 139//12 121//12 71//12
f 139//12 95//12 121//12
f 95//12 39//12 121//12
f 137//12 139//12 71//12
f 137//12 138//12 139//12
f 138//12 70//12 139//12
f 82//12 96//12 40//12
f 82//12 137//12 96//12
f 137//12 71//12 96//12
f 136//13 123//13 73//13
f 136//13 97//13 123//13
f 97//13 43//13 123//13
f 134//13 136//13 73//13
f 134//13 135//13 136//13
f 135//13 72//13 136//13
f 85//13 98//13 44//13
f 85//13 134//13 98//13
f 134//13 73//13 98//13
f 133//14 125//14 75//14
f 133//14 99//14 125//14
f 99//14 47//14 125//14
f 131//14 133//14 75//14
f 131//14 132//14 133//14
f 132//14 74//14 133//14
f 88//14 100//14 48//14
f 88//14 131//14 100//14
f 131//14 75//14 100//14
f 130//15 127//15 77//15
f 130//15 101//15 127//15
f 101//15 51//15 127//15
f 128//15 130//15 77//15
f 128//15 129//15 130//15
f 129//15 76//15 130//15
f 91//15 102//15 52//15
f 91//15 128//15 102//15
f 128//15 77//15 102//15
f 116//15 129//15 66//15
f 116//15 126//15 129//15
f 126//15 76//15 129//15
f 113//14 132//14 63//14
f 113//14 124//14 132//14
f 124//14 74//14 132//14
f 110//13 135//13 60//13
f 110//13 122//13 135//13
f 122//13 72//13 135//13
f 107//12 138//12 57//12
f 107//12 120//12 138//12
f 120//12 70//12 138//12
f 104//11 141//11 54//11
f 104//11 118//11 141//11
f 118//11 68//11 141//11
f 90//15 144//15 65//15
f 90//15 116//15 144//15
f 116//15 66//15 144//15
f 87//14 147//14 62//14
f 87//14 113//14 147//14
f 113//14 63//14 147//14
f 84//13 150//13 59//13
f 84//13 110//13 150//13
f 110//13 60//13 150//13
f 81//12 153//12 56//12
f 81//12 107//12 153//12
f 107//12 57//12 153//12
f 103//11 156//11 53//11
f 103//11 104//11 156//11
f 104//11 54//11 156//11
o tall_block
v 423.000000 330.000061 246.999939
v 265.000000 330.000061 295.999939
v 314.000000 330.000061 455.999939
v 472.000000 330.000061 405.999939
v 423.000000 0.000038 247.000000
v 423.000000 330.000061 246.999939
v 472.000000 330.000061 405.999939
v 472.000000 0.000062 406.000000
v 472.000000 0.000062 406.000000
v 472.000000 330.000061 405.999939
v 314.000000 330.000061 455.999939
v 314.000000 0.000068 456.000000
v 314.000000 0.000068 456.000000
v 314.000000 330.000061 455.999939
v 265.000000 330.000061 295.999939
v 265.000000 0.000044 296.000000
v 265.000000 0.000044 296.000000
v 265.000000 330.000061 295.999939
v 423.000000 330.000061 246.999939
v 423.000000 0.000038 247.000000
v 344.000000 330.000061 271.499939
v 368.500000 330.000061 350.999939
v 447.500000 330.000061 326.499939
v 423.000000 165.000031 246.999969
v 447.500000 165.000061 326.500000
v 447.500000 0.000050 326.500000
v 472.000000 165.000061 406.000000
v 393.000000 165.000061 431.000000
v 393.000000 0.000065 431.000000
v 314.000000 165.000061 456.000000
v 289.500000 165.000061 376.000000
v 289.500000 0.000056 376.000000
v 265.000000 165.000031 296.000000
v 344.000000 165.000046 271.500000
v 344.000000 0.000041 271.500000
v 289.500000 330.000061 375.999939
v 393.000000 330.000061 430.999939
v 447.500000 330.000061 326.499939
v 472.000000 165.000061 406.000000
v 393.000000 330.000061 430.999939
v 314.000000 165.000061 456.000000
v 289.500000 330.000061 375.999939
v 265.000000 165.000046 296.000000
v 344.000000 330.000061 271.499939
v 423.000000 165.000046 246.999969
v 304.500000 330.000061 283.749939
v 420.250000 330.000061 378.499939
v 459.750000 330.000061 366.249939
v 423.000000 247.500046 246.999954
v 459.750000 82.500061 366.250000
v 459.750000 0.000056 366.250000
v 472.000000 247.500061 405.999969
v 353.500000 82.500061 443.500000
v 353.500000 0.000067 443.500000
v 314.000000 247.500061 455.999969
v 277.250000 82.500046 336.000000
v 277.250000 0.000050 336.000000
v 265.000000 247.500046 295.999969
v 383.500000 82.500046 259.250000
v 383.500000 0.000039 259.250000
v 301.750000 330.000061 415.999939
v 432.500000 330.000061 418.499939
v 459.750000 330.000061 366.249939
v 472.000000 82.500061 406.000000
v 353.500000 330.000061 443.499939
v 314.000000 82.500069 456.000000
v 277.250000 330.000061 335.999939
v 265.000000 82.500046 296.000000
v 383.500000 330.000061 259.249939
v 423.000000 82.500038 247.000000
v 383.500000 330.000061 259.249939
v 316.750000 330.000061 323.499939
v 435.250000 330.000061 286.749939
v 423.000000 82.500031 247.000000
v 435.250000 247.500046 286.749969
v 435.250000 0.000044 286.750000
v 472.000000 82.500061 406.000000
v 432.500000 247.500061 418.499969
v 432.500000 0.000063 418.500000
v 314.000000 82.500069 456.000000
v 301.750000 247.500061 415.999969
v 301.750000 0.000062 416.000000
v 265.000000 82.500046 296.000000
v 304.500000 247.500046 283.749969
v 304.500000 0.000043 283.750000
v 277.250000 330.000061 335.999939
v 353.500000 330.000061 443.499939
v 435.250000 330.000061 286.749939
v 472.000000 247.500061 405.999969
v 432.500000 330.000061 418.499939
v 314.000000 247.500061 455.999969
v 301.750000 330.000061 415.999939
v 265.000000 247.500046 295.999969
v 304.500000 330.000061 283.749939
v 423.000000 247.500046 246.999954
v 383.500000 165.000046 259.250000
v 344.000000 247.500046 271.499969
v 383.500000 247.500046 259.249939
v 277.250000 165.000061 336.000000
v 289.500000 247.500061 375.999969
v 277.250000 247.500061 335.999969
v 353.500000 165.000061 443.500000
v 393.000000 247.500061 430.999969
v 353.500000 247.500061 443.499969
v 459.750000 165.000061 366.250000
v 447.500000 247.500061 326.499969
v 459.750000 247.500061 366.249969
v 380.750000 330.000061 390.999939
v 329.000000 330.000061 363.499939
v 341.250000 330.000061 403.499939
v 304.500000 82.500038 283.750000
v 304.500000 165.000046 283.750000
v 344.000000 82.500053 271.500000
v 301.750000 82.500061 416.000000
v 301.750000 165.000061 416.000000
v 289.500000 82.500061 376.000000
v 432.500000 82.500061 418.500000
v 432.500000 165.000061 418.500000
v 393.000000 82.500061 431.000000
v 435.250000 82.500046 286.750000
v 435.250000 165.000046 286.750000
v 447.500000 82.500046 326.500000
v 395.750000 330.000061 298.999939
v 356.250000 330.000061 311.249939
v 408.000000 330.000061 338.749939
vn -0.0000 1.0000 -0.0000
vn 0.9556 -0.0000 -0.2945
vn 0.3017 -0.0000 0.9534
vn -0.9562 -0.0000 0.2928
vn -0.2962 -0.0000 -0.9551
s 1
usemtl white
f 159//16 229//16 203//16
f 163//17 232//17 206//17
f 167//18 235//18 209//18
f 171//19 238//19 212//19
f 175//20 241//20 215//20
f 159//16 243//16 229//16
f 163//17 245//17 232//17
f 167//18 247//18 235//18
f 171//19 249//19 238//19
f 175//20 251//20 241//20
f 191//20 253//20 216//20
f 191//20 254//20 253//20
f 201//20 226//20 255//20
f 188//19 256//19 213//19
f 188//19 257//19 256//19
f 199//19 224//19 258//19
f 185//18 259//18 210//18
f 185//18 260//18 259//18
f 197//18 222//18 261//18
f 182//17 262//17 207//17
f 182//17 263//17 262//17
f 195//17 220//17 264//17
f 179//16 265//16 204//16
f 179//16 266//16 265//16
f 193//16 218//16 267//16
f 190//20 268//20 240//20
f 190//20 269//20 268//20
f 191//20 216//20 270//20
f 187//19 271//19 237//19
f 187//19 272//19 271//19
f 188//19 213//19 273//19
f 184//18 274//18 234//18
f 184//18 275//18 274//18
f 185//18 210//18 276//18
f 181//17 277//17 231//17
f 181//17 278//17 277//17
f 182//17 207//17 279//17
f 178//16 280//16 228//16
f 178//16 281//16 280//16
f 179//16 204//16 282//16
f 282//16 205//16 180//16
f 282//16 204//16 205//16
f 204//16 161//16 205//16
f 280//16 282//16 180//16
f 280//16 281//16 282//16
f 281//16 179//16 282//16
f 228//16 230//16 158//16
f 228//16 280//16 230//16
f 280//16 180//16 230//16
f 279//17 208//17 183//17
f 279//17 207//17 208//17
f 207//17 165//17 208//17
f 277//17 279//17 183//17
f 277//17 278//17 279//17
f 278//17 182//17 279//17
f 231//17 233//17 162//17
f 231//17 277//17 233//17
f 277//17 183//17 233//17
f 276//18 211//18 186//18
f 276//18 210//18 211//18
f 210//18 169//18 211//18
f 274//18 276//18 186//18
f 274//18 275//18 276//18
f 275//18 185//18 276//18
f 234//18 236//18 166//18
f 234//18 274//18 236//18
f 274//18 186//18 236//18
f 273//19 214//19 189//19
f 273//19 213//19 214//19
f 213//19 173//19 214//19
f 271//19 273//19 189//19
f 271//19 272//19 273//19
f 272//19 188//19 273//19
f 237//19 239//19 170//19
f 237//19 271//19 239//19
f 271//19 189//19 239//19
f 270//20 217//20 192//20
f 270//20 216//20 217//20
f 216//20 177//20 217//20
f 268//20 270//20 192//20
f 268//20 269//20 270//20
f 269//20 191//20 270//20
f 240//20 242//20 174//20
f 240//20 268//20 242//20
f 268//20 192//20 242//20
f 267//16 244//16 194//16
f 267//16 218//16 244//16
f 218//16 160//16 244//16
f 265//16 267//16 194//16
f 265//16 266//16 267//16
f 266//16 193//16 267//16
f 204//16 219//16 161//16
f 204//16 265//16 219//16
f 265//16 194//16 219//16
f 264//17 246//17 196//17
f 264//17 220//17 246//17
f 220//17 164//17 246//17
f 262//17 264//17 196//17
f 262//17 263//17 264//17
f 263//17 195//17 264//17
f 207//17 221//17 165//17
f 207//17 262//17 221//17
f 262//17 196//17 221//17
f 261//18 248//18 198//18
f 261//18 222//18 248//18
f 222//18 168//18 248//18
f 259//18 261//18 198//18
f 259//18 260//18 261//18
f 260//18 197//18 261//18
f 210//18 223//18 169//18
f 210//18 259//18 223//18
f 259//18 198//18 223//18
f 258//19 250//19 200//19
f 258//19 224//19 250//19
f 224//19 172//19 250//19
f 256//19 258//19 200//19
f 256//19 257//19 258//19
f 257//19 199//19 258//19
f 213//19 225//19 173//19
f 213//19 256//19 225//19
f 256//19 200//19 225//19
f 255//20 252//20 202//20
f 255//20 226//20 252//20
f 226//20 176//20 252//20
f 253//20 255//20 202//20
f 253//20 254//20 255//20
f 254//20 201//20 255//20
f 216//20 227//20 177//20
f 216//20 253//20 227//20
f 253//20 202//20 227//20
f 241//20 254//20 191//20
f 241//20 251//20 254//20
f 251//20 201//20 254//20
f 238//19 257//19 188//19
f 238//19 249//19 257//19
f 249//19 199//19 257//19
f 235//18 260//18 185//18
f 235//18 247//18 260//18
f 247//18 197//18 260//18
f 232//17 263//17 182//17
f 232//17 245//17 263//17
f 245//17 195//17 263//17
f 229//16 266//16 179//16
f 229//16 243//16 266//16
f 243//16 193//16 266//16
f 215//20 269//20 190//20
f 215//20 241//20 269//20
f 241//20 191//20 269//20
f 212//19 272//19 187//19
f 212//19 238//19 272//19
f 238//19 188//19 272//19
f 209//18 275//18 184//18
f 209//18 235//18 275//18
f 235//18 185//18 275//18
f 206//17 278//17 181//17
f 206//17 232//17 278//17
f 232//17 182//17 278//17
f 203//16 281//16 178//16
f 203//16 229//16 281//16
f 229//16 179//16 281//16
