# Blender 5.0.1
# www.blender.org
mtllib CornellBox-Glossy.mtl
o CornellBox-Glossy
v 0.535300 0.894500 -0.561000
v 0.535300 0.887100 -0.641400
v 0.520500 0.887100 -0.640000
v 0.506300 0.887100 -0.635900
v 0.493000 0.887100 -0.629400
v 0.481200 0.887100 -0.620400
v 0.471200 0.887100 -0.609400
v 0.463300 0.887100 -0.596800
v 0.457900 0.887100 -0.583000
v 0.455300 0.887100 -0.568400
v 0.455300 0.887100 -0.553500
v 0.457900 0.887100 -0.538900
v 0.463300 0.887100 -0.525100
v 0.471200 0.887100 -0.512500
v 0.481200 0.887100 -0.501600
v 0.493000 0.887100 -0.492600
v 0.506300 0.887100 -0.486000
v 0.520500 0.887100 -0.481900
v 0.535300 0.887100 -0.480500
v 0.550200 0.887100 -0.481900
v 0.564400 0.887100 -0.486000
v 0.577700 0.887100 -0.492600
v 0.589500 0.887100 -0.501600
v 0.599500 0.887100 -0.512500
v 0.607400 0.887100 -0.525100
v 0.612600 0.887100 -0.538900
v 0.615400 0.887100 -0.553500
v 0.615400 0.887100 -0.568400
v 0.612600 0.887100 -0.583000
v 0.607400 0.887100 -0.596800
v 0.599500 0.887100 -0.609400
v 0.589500 0.887100 -0.620400
v 0.577700 0.887100 -0.629400
v 0.564400 0.887100 -0.635900
v 0.550200 0.887100 -0.640000
v 0.535300 0.865000 -0.719100
v 0.506300 0.865000 -0.716400
v 0.478300 0.865000 -0.708300
v 0.452100 0.865000 -0.695400
v 0.428800 0.865000 -0.677900
v 0.409200 0.865000 -0.656300
v 0.393800 0.865000 -0.631500
v 0.383300 0.865000 -0.604200
v 0.377900 0.865000 -0.575500
v 0.377900 0.865000 -0.546400
v 0.383300 0.865000 -0.517800
v 0.393800 0.865000 -0.490500
v 0.409200 0.865000 -0.465700
v 0.428800 0.865000 -0.444100
v 0.452100 0.865000 -0.426600
v 0.478300 0.865000 -0.413600
v 0.506300 0.865000 -0.405600
v 0.535300 0.865000 -0.402900
v 0.564400 0.865000 -0.405600
v 0.592400 0.865000 -0.413600
v 0.618600 0.865000 -0.426600
v 0.641800 0.865000 -0.444100
v 0.661500 0.865000 -0.465700
v 0.676900 0.865000 -0.490500
v 0.687400 0.865000 -0.517800
v 0.692800 0.865000 -0.546400
v 0.692800 0.865000 -0.575500
v 0.687400 0.865000 -0.604200
v 0.676900 0.865000 -0.631500
v 0.661500 0.865000 -0.656300
v 0.641800 0.865000 -0.677900
v 0.618600 0.865000 -0.695400
v 0.592400 0.865000 -0.708500
v 0.564400 0.865000 -0.716400
v 0.535300 0.829000 -0.791400
v 0.493000 0.829000 -0.787400
v 0.452100 0.829000 -0.775800
v 0.414000 0.829000 -0.756800
v 0.380100 0.829000 -0.731200
v 0.351400 0.829000 -0.699900
v 0.329100 0.829000 -0.663700
v 0.313700 0.829000 -0.624000
v 0.305900 0.829000 -0.582300
v 0.305900 0.829000 -0.539800
v 0.313700 0.829000 -0.498000
v 0.329100 0.829000 -0.458300
v 0.351400 0.829000 -0.422200
v 0.380100 0.829000 -0.390800
v 0.414000 0.829000 -0.365100
v 0.452100 0.829000 -0.346200
v 0.493000 0.829000 -0.334500
v 0.535300 0.829000 -0.330700
v 0.577700 0.829000 -0.334500
v 0.618600 0.829000 -0.346200
v 0.656700 0.829000 -0.365100
v 0.690600 0.829000 -0.390800
v 0.719100 0.829000 -0.422200
v 0.741600 0.829000 -0.458300
v 0.756900 0.829000 -0.498000
v 0.764700 0.829000 -0.539800
v 0.764700 0.829000 -0.582300
v 0.756900 0.829000 -0.624000
v 0.741600 0.829000 -0.663700
v 0.719100 0.829000 -0.699900
v 0.690600 0.829000 -0.731200
v 0.656700 0.829000 -0.756800
v 0.618600 0.829000 -0.775800
v 0.577700 0.829000 -0.787400
v 0.535300 0.780300 -0.855800
v 0.481200 0.780300 -0.850800
v 0.428800 0.780300 -0.835900
v 0.380100 0.780300 -0.811600
v 0.336700 0.780300 -0.778800
v 0.300000 0.780300 -0.738700
v 0.271400 0.780300 -0.692400
v 0.251700 0.780300 -0.641700
v 0.241700 0.780300 -0.588100
v 0.241700 0.780300 -0.533800
v 0.251700 0.780300 -0.480200
v 0.271400 0.780300 -0.429500
v 0.300000 0.780300 -0.383300
v 0.336700 0.780300 -0.343100
v 0.380100 0.780300 -0.310300
v 0.428800 0.780300 -0.286100
v 0.481200 0.780300 -0.271100
v 0.535300 0.780300 -0.266100
v 0.589500 0.780300 -0.271100
v 0.641800 0.780300 -0.286100
v 0.690600 0.780300 -0.310300
v 0.733900 0.780300 -0.343100
v 0.770600 0.780300 -0.383300
v 0.799300 0.780300 -0.429500
v 0.819000 0.780300 -0.480200
v 0.828900 0.780300 -0.533800
v 0.828900 0.780300 -0.588100
v 0.819000 0.780300 -0.641700
v 0.799300 0.780300 -0.692400
v 0.770600 0.780300 -0.738700
v 0.733900 0.780300 -0.778800
v 0.690600 0.780300 -0.811600
v 0.641800 0.780300 -0.835900
v 0.589500 0.780300 -0.850800
v 0.535300 0.720600 -0.910200
v 0.471200 0.720600 -0.904300
v 0.409200 0.720600 -0.886700
v 0.351400 0.720600 -0.857900
v 0.300000 0.720600 -0.819100
v 0.256700 0.720600 -0.771500
v 0.222800 0.720600 -0.716600
v 0.199400 0.720600 -0.656500
v 0.187600 0.720600 -0.593200
v 0.187600 0.720600 -0.528700
v 0.199400 0.720600 -0.465400
v 0.222800 0.720600 -0.405300
v 0.256700 0.720600 -0.350500
v 0.300000 0.720600 -0.302800
v 0.351400 0.720600 -0.264000
v 0.409200 0.720600 -0.235400
v 0.471200 0.720600 -0.217600
v 0.535300 0.720600 -0.211700
v 0.599500 0.720600 -0.217600
v 0.661500 0.720600 -0.235400
v 0.719100 0.720600 -0.264000
v 0.770600 0.720600 -0.302800
v 0.814000 0.720600 -0.350500
v 0.847900 0.720600 -0.405300
v 0.871200 0.720600 -0.465400
v 0.883100 0.720600 -0.528700
v 0.883100 0.720600 -0.593200
v 0.871200 0.720600 -0.656500
v 0.847900 0.720600 -0.716600
v 0.814000 0.720600 -0.771500
v 0.770600 0.720600 -0.819100
v 0.719100 0.720600 -0.857900
v 0.661500 0.720600 -0.886700
v 0.599500 0.720600 -0.904300
v 0.535300 0.652000 -0.952800
v 0.463300 0.652000 -0.946100
v 0.393800 0.652000 -0.926300
v 0.329100 0.652000 -0.894000
v 0.271400 0.652000 -0.850600
v 0.222800 0.652000 -0.797100
v 0.184700 0.652000 -0.735600
v 0.158500 0.652000 -0.668200
v 0.145200 0.652000 -0.597100
v 0.145200 0.652000 -0.524800
v 0.158500 0.652000 -0.453800
v 0.184700 0.652000 -0.386300
v 0.222800 0.652000 -0.324800
v 0.271400 0.652000 -0.271500
v 0.329100 0.652000 -0.227900
v 0.393800 0.652000 -0.195600
v 0.463300 0.652000 -0.176000
v 0.535300 0.652000 -0.169200
v 0.607400 0.652000 -0.176000
v 0.676900 0.652000 -0.195600
v 0.741600 0.652000 -0.227900
v 0.799300 0.652000 -0.271500
v 0.847900 0.652000 -0.324800
v 0.886000 0.652000 -0.386300
v 0.912200 0.652000 -0.453800
v 0.925500 0.652000 -0.524800
v 0.925500 0.652000 -0.597100
v 0.912200 0.652000 -0.668200
v 0.886000 0.652000 -0.735600
v 0.847900 0.652000 -0.797100
v 0.799300 0.652000 -0.850600
v 0.741600 0.652000 -0.894000
v 0.676900 0.652000 -0.926300
v 0.607400 0.652000 -0.946100
v 0.535300 0.576700 -0.981900
v 0.457900 0.576700 -0.974800
v 0.383300 0.576700 -0.953500
v 0.313700 0.576700 -0.918800
v 0.251700 0.576700 -0.872000
v 0.199400 0.576700 -0.814700
v 0.158500 0.576700 -0.748600
v 0.130500 0.576700 -0.676200
v 0.116300 0.576700 -0.599700
v 0.116300 0.576700 -0.522200
v 0.130500 0.576700 -0.445700
v 0.158500 0.576700 -0.373300
v 0.199400 0.576700 -0.307200
v 0.251700 0.576700 -0.249900
v 0.313700 0.576700 -0.203100
v 0.383300 0.576700 -0.168500
v 0.457900 0.576700 -0.147100
v 0.535300 0.576700 -0.140100
v 0.612600 0.576700 -0.147100
v 0.687400 0.576700 -0.168500
v 0.756900 0.576700 -0.203100
v 0.819000 0.576700 -0.249900
v 0.871200 0.576700 -0.307200
v 0.912200 0.576700 -0.373300
v 0.940200 0.576700 -0.445700
v 0.954400 0.576700 -0.522200
v 0.954400 0.576700 -0.599900
v 0.940200 0.576700 -0.676200
v 0.912200 0.576700 -0.748600
v 0.871200 0.576700 -0.814700
v 0.819000 0.576700 -0.872000
v 0.756900 0.576700 -0.918800
v 0.687400 0.576700 -0.953500
v 0.612600 0.576700 -0.974800
v 0.535300 0.497300 -0.996800
v 0.455300 0.497300 -0.989300
v 0.377900 0.497300 -0.967300
v 0.305900 0.497300 -0.931400
v 0.241700 0.497300 -0.883000
v 0.187600 0.497300 -0.823600
v 0.145200 0.497300 -0.755300
v 0.116300 0.497300 -0.680200
v 0.101400 0.497300 -0.601100
v 0.101400 0.497300 -0.520800
v 0.116300 0.497300 -0.441700
v 0.145200 0.497300 -0.366800
v 0.187600 0.497300 -0.298400
v 0.241700 0.497300 -0.239000
v 0.305900 0.497300 -0.190500
v 0.377900 0.497300 -0.154600
v 0.455300 0.497300 -0.132600
v 0.535300 0.497300 -0.125300
v 0.615400 0.497300 -0.132600
v 0.692800 0.497300 -0.154600
v 0.764700 0.497300 -0.190500
v 0.828900 0.497300 -0.239000
v 0.883100 0.497300 -0.298400
v 0.925500 0.497300 -0.366800
v 0.954400 0.497300 -0.441700
v 0.969200 0.497300 -0.520800
v 0.969200 0.497300 -0.601100
v 0.954400 0.497300 -0.680200
v 0.925500 0.497300 -0.755300
v 0.883100 0.497300 -0.823600
v 0.828900 0.497300 -0.883000
v 0.764700 0.497300 -0.931400
v 0.692800 0.497300 -0.967300
v 0.615400 0.497300 -0.989300
v 0.535300 0.416600 -0.996800
v 0.455300 0.416600 -0.989300
v 0.377900 0.416600 -0.967300
v 0.305900 0.416600 -0.931400
v 0.241700 0.416600 -0.883000
v 0.187600 0.416600 -0.823600
v 0.145200 0.416600 -0.755300
v 0.116300 0.416600 -0.680200
v 0.101400 0.416600 -0.601100
v 0.101400 0.416600 -0.520800
v 0.116300 0.416600 -0.441700
v 0.145200 0.416600 -0.366800
v 0.187600 0.416600 -0.298400
v 0.241700 0.416600 -0.239000
v 0.305900 0.416600 -0.190500
v 0.377900 0.416600 -0.154600
v 0.455300 0.416600 -0.132600
v 0.535300 0.416600 -0.125300
v 0.615400 0.416600 -0.132600
v 0.692800 0.416600 -0.154600
v 0.764700 0.416600 -0.190500
v 0.828900 0.416600 -0.239000
v 0.883100 0.416600 -0.298400
v 0.925500 0.416600 -0.366800
v 0.954400 0.416600 -0.441700
v 0.969200 0.416600 -0.520800
v 0.969200 0.416600 -0.601100
v 0.954400 0.416600 -0.680200
v 0.925500 0.416600 -0.755300
v 0.883100 0.416600 -0.823600
v 0.828900 0.416600 -0.883000
v 0.764700 0.416600 -0.931400
v 0.692800 0.416600 -0.967300
v 0.615400 0.416600 -0.989300
v 0.535300 0.337100 -0.981900
v 0.457900 0.337100 -0.974800
v 0.383300 0.337100 -0.953500
v 0.313700 0.337100 -0.918800
v 0.251700 0.337100 -0.872000
v 0.199400 0.337100 -0.814700
v 0.158500 0.337100 -0.748600
v 0.130500 0.337100 -0.676200
v 0.116300 0.337100 -0.599700
v 0.116300 0.337100 -0.522200
v 0.130500 0.337100 -0.445700
v 0.158500 0.337100 -0.373300
v 0.199400 0.337100 -0.307200
v 0.251700 0.337100 -0.249900
v 0.313700 0.337100 -0.203100
v 0.383300 0.337100 -0.168500
v 0.457900 0.337100 -0.147100
v 0.535300 0.337100 -0.140100
v 0.612600 0.337100 -0.147100
v 0.687400 0.337100 -0.168500
v 0.756900 0.337100 -0.203100
v 0.819000 0.337100 -0.249900
v 0.871200 0.337100 -0.307200
v 0.912200 0.337100 -0.373300
v 0.940200 0.337100 -0.445700
v 0.954400 0.337100 -0.522200
v 0.954400 0.337100 -0.599900
v 0.940200 0.337100 -0.676200
v 0.912200 0.337100 -0.748600
v 0.871200 0.337100 -0.814700
v 0.819000 0.337100 -0.872000
v 0.756900 0.337100 -0.918800
v 0.687400 0.337100 -0.953500
v 0.612600 0.337100 -0.974800
v 0.535300 0.261900 -0.952800
v 0.463300 0.261900 -0.946100
v 0.393800 0.261900 -0.926300
v 0.329100 0.261900 -0.894000
v 0.271400 0.261900 -0.850600
v 0.222800 0.261900 -0.797100
v 0.184700 0.261900 -0.735600
v 0.158500 0.261900 -0.668200
v 0.145200 0.261900 -0.597100
v 0.145200 0.261900 -0.524800
v 0.158500 0.261900 -0.453800
v 0.184700 0.261900 -0.386300
v 0.222800 0.261900 -0.324800
v 0.271400 0.261900 -0.271500
v 0.329100 0.261900 -0.227900
v 0.393800 0.261900 -0.195600
v 0.463300 0.261900 -0.176000
v 0.535300 0.261900 -0.169200
v 0.607400 0.261900 -0.176000
v 0.676900 0.261900 -0.195600
v 0.741600 0.261900 -0.227900
v 0.799300 0.261900 -0.271500
v 0.847900 0.261900 -0.324800
v 0.886000 0.261900 -0.386300
v 0.912200 0.261900 -0.453800
v 0.925500 0.261900 -0.524800
v 0.925500 0.261900 -0.597100
v 0.912200 0.261900 -0.668200
v 0.886000 0.261900 -0.735600
v 0.847900 0.261900 -0.797100
v 0.799300 0.261900 -0.850600
v 0.741600 0.261900 -0.894000
v 0.676900 0.261900 -0.926300
v 0.607400 0.261900 -0.946100
v 0.535300 0.193200 -0.910200
v 0.471200 0.193200 -0.904300
v 0.409200 0.193200 -0.886700
v 0.351400 0.193200 -0.857900
v 0.300000 0.193200 -0.819100
v 0.256700 0.193200 -0.771500
v 0.222800 0.193200 -0.716600
v 0.199400 0.193200 -0.656500
v 0.187600 0.193200 -0.593200
v 0.187600 0.193200 -0.528700
v 0.199400 0.193200 -0.465400
v 0.222800 0.193200 -0.405300
v 0.256700 0.193200 -0.350500
v 0.300000 0.193200 -0.302800
v 0.351400 0.193200 -0.264000
v 0.409200 0.193200 -0.235400
v 0.471200 0.193200 -0.217600
v 0.535300 0.193200 -0.211700
v 0.599500 0.193200 -0.217600
v 0.661500 0.193200 -0.235400
v 0.719100 0.193200 -0.264000
v 0.770600 0.193200 -0.302800
v 0.814000 0.193200 -0.350500
v 0.847900 0.193200 -0.405300
v 0.871200 0.193200 -0.465400
v 0.883100 0.193200 -0.528700
v 0.883100 0.193200 -0.593200
v 0.871200 0.193200 -0.656500
v 0.847900 0.193200 -0.716600
v 0.814000 0.193200 -0.771500
v 0.770600 0.193200 -0.819100
v 0.719100 0.193200 -0.857900
v 0.661500 0.193200 -0.886700
v 0.599500 0.193200 -0.904300
v 0.535300 0.133500 -0.855800
v 0.481200 0.133500 -0.850800
v 0.428800 0.133500 -0.835900
v 0.380100 0.133500 -0.811600
v 0.336700 0.133500 -0.778800
v 0.300000 0.133500 -0.738700
v 0.271400 0.133500 -0.692400
v 0.251700 0.133500 -0.641700
v 0.241700 0.133500 -0.588100
v 0.241700 0.133500 -0.533800
v 0.251700 0.133500 -0.480200
v 0.271400 0.133500 -0.429500
v 0.300000 0.133500 -0.383300
v 0.336700 0.133500 -0.343100
v 0.380100 0.133500 -0.310300
v 0.428800 0.133500 -0.286100
v 0.481200 0.133500 -0.271100
v 0.535300 0.133500 -0.266100
v 0.589500 0.133500 -0.271100
v 0.641800 0.133500 -0.286100
v 0.690600 0.133500 -0.310300
v 0.733900 0.133500 -0.343100
v 0.770600 0.133500 -0.383300
v 0.799300 0.133500 -0.429500
v 0.819000 0.133500 -0.480200
v 0.828900 0.133500 -0.533800
v 0.828900 0.133500 -0.588100
v 0.819000 0.133500 -0.641700
v 0.799300 0.133500 -0.692400
v 0.770600 0.133500 -0.738700
v 0.733900 0.133500 -0.778800
v 0.690600 0.133500 -0.811600
v 0.641800 0.133500 -0.835900
v 0.589500 0.133500 -0.850800
v 0.535300 0.084800 -0.791400
v 0.493000 0.084800 -0.787400
v 0.452100 0.084800 -0.775800
v 0.414000 0.084800 -0.756800
v 0.380100 0.084800 -0.731200
v 0.351400 0.084800 -0.699900
v 0.329100 0.084800 -0.663700
v 0.313700 0.084800 -0.624000
v 0.305900 0.084800 -0.582300
v 0.305900 0.084800 -0.539800
v 0.313700 0.084800 -0.498000
v 0.329100 0.084800 -0.458300
v 0.351400 0.084800 -0.422200
v 0.380100 0.084800 -0.390800
v 0.414000 0.084800 -0.365100
v 0.452100 0.084800 -0.346200
v 0.493000 0.084800 -0.334500
v 0.535300 0.084800 -0.330700
v 0.577700 0.084800 -0.334500
v 0.618600 0.084800 -0.346200
v 0.656700 0.084800 -0.365100
v 0.690600 0.084800 -0.390800
v 0.719100 0.084800 -0.422200
v 0.741600 0.084800 -0.458300
v 0.756900 0.084800 -0.498000
v 0.764700 0.084800 -0.539800
v 0.764700 0.084800 -0.582300
v 0.756900 0.084800 -0.624000
v 0.741600 0.084800 -0.663700
v 0.719100 0.084800 -0.699900
v 0.690600 0.084800 -0.731200
v 0.656700 0.084800 -0.756800
v 0.618600 0.084800 -0.775800
v 0.577700 0.084800 -0.787400
v 0.535300 0.048900 -0.719100
v 0.506300 0.048900 -0.716400
v 0.478300 0.048900 -0.708300
v 0.452100 0.048900 -0.695400
v 0.428800 0.048900 -0.677900
v 0.409200 0.048900 -0.656300
v 0.393800 0.048900 -0.631500
v 0.383300 0.048900 -0.604200
v 0.377900 0.048900 -0.575500
v 0.377900 0.048900 -0.546400
v 0.383300 0.048900 -0.517800
v 0.393800 0.048900 -0.490500
v 0.409200 0.048900 -0.465700
v 0.428800 0.048900 -0.444100
v 0.452100 0.048900 -0.426600
v 0.478300 0.048900 -0.413600
v 0.506300 0.048900 -0.405600
v 0.535300 0.048900 -0.402900
v 0.564400 0.048900 -0.405600
v 0.592400 0.048900 -0.413600
v 0.618600 0.048900 -0.426600
v 0.641800 0.048900 -0.444100
v 0.661500 0.048900 -0.465700
v 0.676900 0.048900 -0.490500
v 0.687400 0.048900 -0.517800
v 0.692800 0.048900 -0.546400
v 0.692800 0.048900 -0.575500
v 0.687400 0.048900 -0.604200
v 0.676900 0.048900 -0.631500
v 0.661500 0.048900 -0.656300
v 0.641800 0.048900 -0.677900
v 0.618600 0.048900 -0.695400
v 0.592400 0.048900 -0.708300
v 0.564400 0.048900 -0.716400
v 0.535300 0.026700 -0.641400
v 0.520500 0.026700 -0.640000
v 0.506300 0.026700 -0.635900
v 0.493000 0.026700 -0.629400
v 0.481200 0.026700 -0.620400
v 0.471200 0.026700 -0.609400
v 0.463300 0.026700 -0.596800
v 0.457900 0.026700 -0.583000
v 0.455300 0.026700 -0.568400
v 0.455300 0.026700 -0.553500
v 0.457900 0.026700 -0.538900
v 0.463300 0.026700 -0.525100
v 0.471200 0.026700 -0.512500
v 0.481200 0.026700 -0.501600
v 0.493000 0.026700 -0.492600
v 0.506300 0.026700 -0.486000
v 0.520500 0.026700 -0.481900
v 0.535300 0.026700 -0.480500
v 0.550200 0.026700 -0.481900
v 0.564400 0.026700 -0.486000
v 0.577700 0.026700 -0.492600
v 0.589500 0.026700 -0.501600
v 0.599500 0.026700 -0.512500
v 0.607400 0.026700 -0.525100
v 0.612600 0.026700 -0.538900
v 0.615400 0.026700 -0.553500
v 0.615400 0.026700 -0.568400
v 0.612600 0.026700 -0.583000
v 0.607400 0.026700 -0.596800
v 0.599500 0.026700 -0.609400
v 0.589500 0.026700 -0.620400
v 0.577700 0.026700 -0.629400
v 0.564400 0.026700 -0.635900
v 0.550200 0.026700 -0.640000
v 0.535300 0.019300 -0.561000
v -0.767500 -0.000100 0.178300
v -0.470900 0.000100 -0.187600
v -0.105100 0.000100 0.109000
v -0.401600 -0.000100 0.474900
v -0.767600 0.470900 0.178400
v -0.401800 0.470900 0.475000
v -0.105100 0.471000 0.109100
v -0.471000 0.471000 -0.187500
v 1.000000 -0.000000 -1.040000
v -0.990000 -0.000000 -1.040000
v -1.010000 0.000000 0.990000
v 1.000000 0.000000 0.990000
v 1.000000 1.590000 -1.040000
v 1.000000 1.590000 0.990000
v -1.020000 1.590000 0.990000
v -1.020000 1.590000 -1.040000
v 1.000000 1.590000 -1.040000
v -1.020000 1.590000 -1.040000
v -0.990000 -0.000000 -1.040000
v 1.000000 -0.000000 -1.040000
v 1.000000 1.590000 0.990000
v 1.000000 1.590000 -1.040000
v 1.000000 -0.000000 -1.040000
v 1.000000 0.000000 0.990000
v -1.020000 1.590000 -1.040000
v -1.020000 1.590000 0.990000
v -1.010000 0.000000 0.990000
v -0.990000 -0.000000 -1.040000
v 0.230000 1.580000 -0.220000
v 0.230000 1.580000 0.160000
v -0.240000 1.580000 0.160000
v -0.240000 1.580000 -0.220000
vn -0.0000 1.0000 -0.0000
vn -0.0000 0.9820 -0.1890
vn -0.0350 0.9820 -0.1856
vn -0.0681 0.9820 -0.1761
vn -0.0991 0.9820 -0.1608
vn -0.1273 0.9820 -0.1394
vn -0.1502 0.9821 -0.1139
vn -0.1690 0.9820 -0.0845
vn -0.1819 0.9820 -0.0514
vn -0.1882 0.9820 -0.0174
vn -0.1881 0.9820 0.0173
vn -0.1819 0.9820 0.0515
vn -0.1692 0.9820 0.0842
vn -0.1508 0.9820 0.1139
vn -0.1270 0.9821 0.1392
vn -0.0997 0.9820 0.1604
vn -0.0683 0.9820 0.1759
vn -0.0352 0.9820 0.1855
vn -0.0001 0.9820 0.1888
vn 0.0351 0.9820 0.1855
vn 0.0684 0.9821 0.1758
vn 0.0996 0.9820 0.1604
vn 0.1273 0.9820 0.1398
vn 0.1507 0.9820 0.1139
vn 0.1693 0.9820 0.0840
vn 0.1816 0.9820 0.0515
vn 0.1879 0.9820 0.0179
vn 0.1878 0.9820 -0.0178
vn 0.1812 0.9821 -0.0512
vn 0.1694 0.9820 -0.0838
vn 0.1507 0.9820 -0.1139
vn 0.1273 0.9820 -0.1395
vn 0.0993 0.9820 -0.1606
vn 0.0682 0.9820 -0.1761
vn 0.0352 0.9820 -0.1854
vn 0.0004 0.9307 -0.3658
vn -0.0679 0.9306 -0.3596
vn -0.1323 0.9307 -0.3409
vn -0.1925 0.9306 -0.3112
vn -0.2464 0.9306 -0.2706
vn -0.2919 0.9308 -0.2201
vn -0.3276 0.9306 -0.1631
vn -0.3519 0.9307 -0.0999
vn -0.3644 0.9306 -0.0339
vn -0.3642 0.9307 0.0340
vn -0.3519 0.9307 0.1001
vn -0.3276 0.9306 0.1631
vn -0.2920 0.9306 0.2205
vn -0.2466 0.9306 0.2705
vn -0.1919 0.9307 0.3113
vn -0.1321 0.9307 0.3412
vn -0.0674 0.9306 0.3598
vn -0.0000 0.9306 0.3659
vn 0.0675 0.9306 0.3597
vn 0.1321 0.9306 0.3412
vn 0.1924 0.9306 0.3113
vn 0.2466 0.9306 0.2706
vn 0.2920 0.9307 0.2204
vn 0.3272 0.9307 0.1632
vn 0.3521 0.9306 0.0999
vn 0.3644 0.9306 0.0338
vn 0.3645 0.9306 -0.0339
vn 0.3520 0.9307 -0.0999
vn 0.3275 0.9306 -0.1632
vn 0.2919 0.9306 -0.2208
vn 0.2464 0.9306 -0.2705
vn 0.1928 0.9306 -0.3111
vn 0.1321 0.9306 -0.3414
vn 0.0669 0.9307 -0.3597
vn -0.0000 0.8476 -0.5306
vn -0.0978 0.8477 -0.5213
vn -0.1917 0.8478 -0.4945
vn -0.2793 0.8477 -0.4510
vn -0.3572 0.8477 -0.3921
vn -0.4233 0.8476 -0.3198
vn -0.4749 0.8478 -0.2361
vn -0.5101 0.8478 -0.1452
vn -0.5281 0.8478 -0.0490
vn -0.5281 0.8478 0.0488
vn -0.5100 0.8478 0.1452
vn -0.4748 0.8478 0.2362
vn -0.4232 0.8477 0.3197
vn -0.3575 0.8477 0.3919
vn -0.2793 0.8477 0.4510
vn -0.1916 0.8478 0.4945
vn -0.0972 0.8479 0.5212
vn -0.0000 0.8479 0.5301
vn 0.0972 0.8477 0.5215
vn 0.1916 0.8477 0.4946
vn 0.2793 0.8477 0.4509
vn 0.3573 0.8478 0.3919
vn 0.4231 0.8478 0.3197
vn 0.4746 0.8478 0.2368
vn 0.5101 0.8479 0.1447
vn 0.5283 0.8477 0.0489
vn 0.5282 0.8477 -0.0489
vn 0.5101 0.8478 -0.1449
vn 0.4750 0.8477 -0.2364
vn 0.4231 0.8476 -0.3201
vn 0.3574 0.8477 -0.3919
vn 0.2794 0.8476 -0.4511
vn 0.1918 0.8476 -0.4948
vn 0.0976 0.8476 -0.5215
vn 0.0001 0.7361 -0.6768
vn -0.1242 0.7363 -0.6652
vn -0.2446 0.7364 -0.6308
vn -0.3564 0.7364 -0.5750
vn -0.4557 0.7363 -0.5003
vn -0.5400 0.7362 -0.4079
vn -0.6062 0.7358 -0.3018
vn -0.6511 0.7360 -0.1855
vn -0.6741 0.7360 -0.0623
vn -0.6737 0.7364 0.0624
vn -0.6508 0.7363 0.1852
vn -0.6059 0.7359 0.3020
vn -0.5402 0.7361 0.4078
vn -0.4555 0.7365 0.5000
vn -0.3560 0.7363 0.5754
vn -0.2448 0.7361 0.6311
vn -0.1247 0.7363 0.6651
vn -0.0000 0.7364 0.6765
vn 0.1248 0.7364 0.6650
vn 0.2447 0.7361 0.6311
vn 0.3561 0.7361 0.5756
vn 0.4561 0.7363 0.4997
vn 0.5400 0.7363 0.4077
vn 0.6057 0.7362 0.3018
vn 0.6511 0.7361 0.1851
vn 0.6738 0.7363 0.0622
vn 0.6737 0.7363 -0.0626
vn 0.6510 0.7362 -0.1851
vn 0.6059 0.7360 -0.3020
vn 0.5398 0.7363 -0.4081
vn 0.4557 0.7362 -0.5003
vn 0.3564 0.7362 -0.5753
vn 0.2445 0.7363 -0.6309
vn 0.1242 0.7363 -0.6652
vn -0.0001 0.6005 -0.7997
vn -0.1466 0.6002 -0.7863
vn -0.2889 0.6001 -0.7459
vn -0.4210 0.6001 -0.6801
vn -0.5390 0.6002 -0.5910
vn -0.6384 0.6000 -0.4821
vn -0.7161 0.6000 -0.3567
vn -0.7695 0.6000 -0.2188
vn -0.7964 0.6002 -0.0736
vn -0.7965 0.6001 0.0737
vn -0.7694 0.6000 0.2189
vn -0.7161 0.6000 0.3566
vn -0.6385 0.6000 0.4820
vn -0.5395 0.5998 0.5909
vn -0.4209 0.6001 0.6802
vn -0.2890 0.6000 0.7460
vn -0.1471 0.6000 0.7864
vn 0.0002 0.5999 0.8001
vn 0.1471 0.5998 0.7865
vn 0.2891 0.6001 0.7459
vn 0.4211 0.6000 0.6801
vn 0.5388 0.6002 0.5911
vn 0.6384 0.6004 0.4816
vn 0.7163 0.5998 0.3566
vn 0.7694 0.6000 0.2191
vn 0.7963 0.6003 0.0740
vn 0.7965 0.6001 -0.0738
vn 0.7692 0.6003 -0.2192
vn 0.7160 0.6001 -0.3567
vn 0.6387 0.6000 -0.4817
vn 0.5388 0.6001 -0.5912
vn 0.4212 0.6003 -0.6799
vn 0.2893 0.6003 -0.7456
vn 0.1468 0.6002 -0.7862
vn -0.0000 0.4438 -0.8961
vn -0.1647 0.4436 -0.8810
vn -0.3242 0.4437 -0.8355
vn -0.4716 0.4434 -0.7622
vn -0.6036 0.4435 -0.6625
vn -0.7152 0.4437 -0.5400
vn -0.8022 0.4437 -0.3995
vn -0.8619 0.4435 -0.2457
vn -0.8924 0.4435 -0.0827
vn -0.8925 0.4434 0.0827
vn -0.8618 0.4438 0.2454
vn -0.8021 0.4438 0.3996
vn -0.7152 0.4437 0.5401
vn -0.6039 0.4437 0.6621
vn -0.4722 0.4433 0.7619
vn -0.3236 0.4438 0.8357
vn -0.1646 0.4438 0.8809
vn -0.0003 0.4435 0.8963
vn 0.1647 0.4438 0.8808
vn 0.3235 0.4436 0.8358
vn 0.4720 0.4440 0.7616
vn 0.6037 0.4440 0.6622
vn 0.7149 0.4440 0.5401
vn 0.8021 0.4438 0.3995
vn 0.8618 0.4439 0.2454
vn 0.8924 0.4436 0.0827
vn 0.8925 0.4434 -0.0826
vn 0.8618 0.4439 -0.2455
vn 0.8022 0.4437 -0.3996
vn 0.7152 0.4436 -0.5401
vn 0.6036 0.4437 -0.6624
vn 0.4715 0.4438 -0.7620
vn 0.3239 0.4436 -0.8356
vn 0.1648 0.4437 -0.8809
vn -0.0001 0.2721 -0.9623
vn -0.1768 0.2722 -0.9458
vn -0.3478 0.2721 -0.8972
vn -0.5067 0.2722 -0.8180
vn -0.6480 0.2720 -0.7114
vn -0.7678 0.2724 -0.5799
vn -0.8614 0.2723 -0.4288
vn -0.9257 0.2719 -0.2630
vn -0.9582 0.2723 -0.0883
vn -0.9583 0.2718 0.0885
vn -0.9256 0.2721 0.2632
vn -0.8614 0.2722 0.4288
vn -0.7678 0.2722 0.5800
vn -0.6480 0.2724 0.7113
vn -0.5064 0.2724 0.8182
vn -0.3477 0.2721 0.8972
vn -0.1765 0.2724 0.9459
vn -0.0003 0.2720 0.9623
vn 0.1767 0.2723 0.9458
vn 0.3480 0.2723 0.8971
vn 0.5065 0.2723 0.8181
vn 0.6482 0.2723 0.7111
vn 0.7677 0.2722 0.5801
vn 0.8614 0.2723 0.4289
vn 0.9257 0.2719 0.2629
vn 0.9582 0.2721 0.0887
vn 0.9582 0.2721 -0.0888
vn 0.9255 0.2722 -0.2633
vn 0.8611 0.2727 -0.4291
vn 0.7676 0.2725 -0.5801
vn 0.6483 0.2717 -0.7113
vn 0.5065 0.2722 -0.8181
vn 0.3481 0.2720 -0.8971
vn 0.1767 0.2720 -0.9459
vn -0.0003 0.0919 -0.9958
vn -0.1831 0.0913 -0.9788
vn -0.3600 0.0915 -0.9285
vn -0.5241 0.0916 -0.8467
vn -0.6708 0.0918 -0.7360
vn -0.7944 0.0915 -0.6005
vn -0.8915 0.0918 -0.4437
vn -0.9579 0.0914 -0.2723
vn -0.9915 0.0922 -0.0923
vn -0.9915 0.0920 0.0920
vn -0.9579 0.0916 0.2722
vn -0.8914 0.0917 0.4438
vn -0.7946 0.0917 0.6001
vn -0.6709 0.0918 0.7359
vn -0.5245 0.0916 0.8465
vn -0.3597 0.0920 0.9285
vn -0.1828 0.0917 0.9789
vn -0.0000 0.0919 0.9958
vn 0.1829 0.0918 0.9788
vn 0.3600 0.0919 0.9284
vn 0.5246 0.0918 0.8464
vn 0.6709 0.0918 0.7359
vn 0.7945 0.0914 0.6004
vn 0.8914 0.0918 0.4439
vn 0.9579 0.0916 0.2723
vn 0.9915 0.0917 0.0918
vn 0.9915 0.0918 -0.0919
vn 0.9578 0.0917 -0.2723
vn 0.8915 0.0919 -0.4436
vn 0.7946 0.0918 -0.6001
vn 0.6704 0.0916 -0.7363
vn 0.5243 0.0916 -0.8466
vn 0.3601 0.0916 -0.9284
vn 0.1831 0.0918 -0.9788
vn 0.0002 -0.0918 -0.9958
vn -0.1831 -0.0916 -0.9788
vn -0.3599 -0.0915 -0.9285
vn -0.5242 -0.0916 -0.8467
vn -0.6706 -0.0917 -0.7361
vn -0.7946 -0.0919 -0.6001
vn -0.8915 -0.0918 -0.4436
vn -0.9580 -0.0915 -0.2718
vn -0.9915 -0.0919 -0.0920
vn -0.9915 -0.0921 0.0923
vn -0.9578 -0.0912 0.2726
vn -0.8914 -0.0917 0.4438
vn -0.7946 -0.0918 0.6001
vn -0.6708 -0.0919 0.7359
vn -0.5244 -0.0917 0.8465
vn -0.3601 -0.0918 0.9284
vn -0.1828 -0.0917 0.9789
vn -0.0000 -0.0917 0.9958
vn 0.1826 -0.0916 0.9789
vn 0.3600 -0.0919 0.9284
vn 0.5243 -0.0917 0.8466
vn 0.6709 -0.0919 0.7359
vn 0.7947 -0.0918 0.6000
vn 0.8914 -0.0918 0.4439
vn 0.9578 -0.0917 0.2724
vn 0.9915 -0.0918 0.0920
vn 0.9916 -0.0916 -0.0918
vn 0.9578 -0.0918 -0.2724
vn 0.8914 -0.0918 -0.4439
vn 0.7944 -0.0917 -0.6004
vn 0.6709 -0.0918 -0.7358
vn 0.5243 -0.0915 -0.8466
vn 0.3602 -0.0915 -0.9284
vn 0.1831 -0.0914 -0.9788
vn 0.0001 -0.2722 -0.9622
vn -0.1771 -0.2720 -0.9459
vn -0.3478 -0.2721 -0.8972
vn -0.5065 -0.2722 -0.8181
vn -0.6481 -0.2722 -0.7112
vn -0.7678 -0.2726 -0.5798
vn -0.8613 -0.2727 -0.4288
vn -0.9256 -0.2721 -0.2632
vn -0.9582 -0.2719 -0.0885
vn -0.9581 -0.2724 0.0883
vn -0.9256 -0.2721 0.2630
vn -0.8614 -0.2722 0.4289
vn -0.7677 -0.2723 0.5800
vn -0.6481 -0.2722 0.7112
vn -0.5064 -0.2721 0.8182
vn -0.3479 -0.2725 0.8970
vn -0.1769 -0.2728 0.9457
vn 0.0003 -0.2720 0.9623
vn 0.1767 -0.2723 0.9459
vn 0.3481 -0.2721 0.8971
vn 0.5063 -0.2723 0.8182
vn 0.6481 -0.2721 0.7113
vn 0.7677 -0.2722 0.5801
vn 0.8612 -0.2724 0.4291
vn 0.9256 -0.2721 0.2631
vn 0.9581 -0.2722 0.0888
vn 0.9583 -0.2717 -0.0886
vn 0.9257 -0.2718 -0.2630
vn 0.8613 -0.2723 -0.4289
vn 0.7677 -0.2725 -0.5799
vn 0.6482 -0.2721 -0.7113
vn 0.5064 -0.2725 -0.8181
vn 0.3482 -0.2721 -0.8971
vn 0.1765 -0.2718 -0.9460
vn -0.0001 -0.4437 -0.8962
vn -0.1648 -0.4438 -0.8809
vn -0.3244 -0.4435 -0.8355
vn -0.4715 -0.4435 -0.7622
vn -0.6038 -0.4438 -0.6622
vn -0.7152 -0.4436 -0.5401
vn -0.8022 -0.4437 -0.3995
vn -0.8618 -0.4438 -0.2455
vn -0.8926 -0.4433 -0.0826
vn -0.8925 -0.4434 0.0827
vn -0.8620 -0.4435 0.2456
vn -0.8019 -0.4442 0.3995
vn -0.7150 -0.4441 0.5399
vn -0.6038 -0.4436 0.6623
vn -0.4719 -0.4438 0.7618
vn -0.3234 -0.4436 0.8358
vn -0.1648 -0.4439 0.8808
vn 0.0002 -0.4434 0.8963
vn 0.1644 -0.4440 0.8808
vn 0.3234 -0.4440 0.8356
vn 0.4722 -0.4434 0.7619
vn 0.6038 -0.4438 0.6622
vn 0.7150 -0.4441 0.5400
vn 0.8020 -0.4439 0.3996
vn 0.8617 -0.4441 0.2455
vn 0.8925 -0.4433 0.0827
vn 0.8925 -0.4433 -0.0828
vn 0.8618 -0.4438 -0.2456
vn 0.8019 -0.4441 -0.3997
vn 0.7152 -0.4436 -0.5400
vn 0.6036 -0.4437 -0.6624
vn 0.4717 -0.4435 -0.7621
vn 0.3243 -0.4436 -0.8355
vn 0.1649 -0.4439 -0.8808
vn -0.0000 -0.6002 -0.7999
vn -0.1466 -0.6002 -0.7863
vn -0.2890 -0.6000 -0.7460
vn -0.4210 -0.6002 -0.6801
vn -0.5389 -0.6000 -0.5912
vn -0.6384 -0.6000 -0.4821
vn -0.7161 -0.5999 -0.3567
vn -0.7694 -0.6001 -0.2188
vn -0.7967 -0.5999 -0.0737
vn -0.7966 -0.5999 0.0737
vn -0.7694 -0.6001 0.2188
vn -0.7161 -0.5997 0.3571
vn -0.6385 -0.6000 0.4820
vn -0.5394 -0.5999 0.5909
vn -0.4211 -0.6000 0.6802
vn -0.2892 -0.6002 0.7457
vn -0.1471 -0.5999 0.7864
vn -0.0003 -0.5996 0.8003
vn 0.1470 -0.6001 0.7863
vn 0.2889 -0.6002 0.7459
vn 0.4206 -0.6002 0.6804
vn 0.5389 -0.6000 0.5912
vn 0.6387 -0.5998 0.4819
vn 0.7163 -0.5996 0.3568
vn 0.7694 -0.6000 0.2189
vn 0.7963 -0.6003 0.0742
vn 0.7965 -0.6001 -0.0740
vn 0.7694 -0.6000 -0.2190
vn 0.7159 -0.6001 -0.3568
vn 0.6386 -0.5999 -0.4820
vn 0.5387 -0.6003 -0.5911
vn 0.4211 -0.6000 -0.6802
vn 0.2889 -0.6000 -0.7460
vn 0.1466 -0.6000 -0.7865
vn -0.0002 -0.7361 -0.6768
vn -0.1241 -0.7363 -0.6652
vn -0.2446 -0.7363 -0.6309
vn -0.3565 -0.7363 -0.5751
vn -0.4557 -0.7363 -0.5001
vn -0.5403 -0.7360 -0.4080
vn -0.6058 -0.7363 -0.3016
vn -0.6508 -0.7363 -0.1852
vn -0.6741 -0.7360 -0.0623
vn -0.6741 -0.7360 0.0623
vn -0.6510 -0.7361 0.1855
vn -0.6058 -0.7361 0.3018
vn -0.5402 -0.7359 0.4082
vn -0.4559 -0.7364 0.4999
vn -0.3560 -0.7364 0.5753
vn -0.2446 -0.7362 0.6310
vn -0.1247 -0.7363 0.6650
vn -0.0001 -0.7364 0.6765
vn 0.1248 -0.7362 0.6651
vn 0.2446 -0.7361 0.6311
vn 0.3564 -0.7360 0.5755
vn 0.4559 -0.7364 0.4999
vn 0.5399 -0.7363 0.4079
vn 0.6057 -0.7362 0.3019
vn 0.6507 -0.7364 0.1852
vn 0.6738 -0.7363 0.0623
vn 0.6738 -0.7363 -0.0622
vn 0.6512 -0.7360 -0.1851
vn 0.6058 -0.7362 -0.3017
vn 0.5399 -0.7360 -0.4084
vn 0.4559 -0.7362 -0.5001
vn 0.3566 -0.7361 -0.5753
vn 0.2446 -0.7363 -0.6309
vn 0.1243 -0.7363 -0.6651
vn -0.0002 -0.8479 -0.5302
vn -0.0976 -0.8480 -0.5209
vn -0.1913 -0.8481 -0.4941
vn -0.2792 -0.8479 -0.4507
vn -0.3571 -0.8478 -0.3920
vn -0.4229 -0.8479 -0.3196
vn -0.4747 -0.8480 -0.2358
vn -0.5099 -0.8479 -0.1451
vn -0.5276 -0.8481 -0.0489
vn -0.5279 -0.8479 0.0489
vn -0.5099 -0.8479 0.1450
vn -0.4743 -0.8481 0.2361
vn -0.4229 -0.8480 0.3194
vn -0.3571 -0.8480 0.3916
vn -0.2790 -0.8480 0.4506
vn -0.1916 -0.8479 0.4944
vn -0.0971 -0.8480 0.5210
vn -0.0001 -0.8479 0.5301
vn 0.0974 -0.8478 0.5213
vn 0.1915 -0.8480 0.4942
vn 0.2791 -0.8479 0.4507
vn 0.3574 -0.8478 0.3918
vn 0.4227 -0.8480 0.3197
vn 0.4743 -0.8480 0.2364
vn 0.5101 -0.8478 0.1451
vn 0.5280 -0.8478 0.0489
vn 0.5279 -0.8479 -0.0490
vn 0.5100 -0.8479 -0.1450
vn 0.4744 -0.8480 -0.2364
vn 0.4228 -0.8480 -0.3196
vn 0.3573 -0.8478 -0.3919
vn 0.2792 -0.8479 -0.4506
vn 0.1915 -0.8480 -0.4942
vn 0.0974 -0.8478 -0.5213
vn -0.0000 -0.9306 -0.3659
vn -0.0673 -0.9306 -0.3597
vn -0.1323 -0.9306 -0.3413
vn -0.1926 -0.9306 -0.3111
vn -0.2466 -0.9306 -0.2705
vn -0.2918 -0.9307 -0.2204
vn -0.3276 -0.9306 -0.1632
vn -0.3519 -0.9307 -0.0999
vn -0.3642 -0.9307 -0.0339
vn -0.3644 -0.9306 0.0340
vn -0.3520 -0.9307 0.1000
vn -0.3276 -0.9306 0.1631
vn -0.2920 -0.9307 0.2202
vn -0.2465 -0.9306 0.2706
vn -0.1925 -0.9306 0.3112
vn -0.1321 -0.9306 0.3412
vn -0.0675 -0.9306 0.3597
vn -0.0000 -0.9307 0.3659
vn 0.0674 -0.9306 0.3598
vn 0.1321 -0.9307 0.3412
vn 0.1923 -0.9307 0.3112
vn 0.2464 -0.9307 0.2704
vn 0.2921 -0.9306 0.2208
vn 0.3275 -0.9307 0.1631
vn 0.3519 -0.9307 0.1000
vn 0.3645 -0.9306 0.0340
vn 0.3645 -0.9306 -0.0340
vn 0.3520 -0.9306 -0.0998
vn 0.3277 -0.9306 -0.1630
vn 0.2919 -0.9306 -0.2208
vn 0.2465 -0.9306 -0.2706
vn 0.1923 -0.9306 -0.3114
vn 0.1323 -0.9307 -0.3409
vn 0.0679 -0.9306 -0.3596
vn -0.0001 -0.9819 -0.1893
vn -0.0350 -0.9819 -0.1859
vn -0.0680 -0.9820 -0.1765
vn -0.0997 -0.9819 -0.1613
vn -0.1273 -0.9820 -0.1397
vn -0.1506 -0.9820 -0.1142
vn -0.1692 -0.9820 -0.0843
vn -0.1818 -0.9820 -0.0517
vn -0.1883 -0.9820 -0.0171
vn -0.1882 -0.9820 0.0170
vn -0.1819 -0.9820 0.0517
vn -0.1692 -0.9820 0.0843
vn -0.1508 -0.9820 0.1139
vn -0.1275 -0.9820 0.1395
vn -0.0999 -0.9819 0.1609
vn -0.0686 -0.9819 0.1764
vn -0.0353 -0.9819 0.1861
vn -0.0000 -0.9820 0.1890
vn 0.0353 -0.9819 0.1862
vn 0.0686 -0.9819 0.1764
vn 0.1000 -0.9819 0.1609
vn 0.1274 -0.9820 0.1397
vn 0.1506 -0.9820 0.1143
vn 0.1693 -0.9820 0.0842
vn 0.1818 -0.9820 0.0514
vn 0.1883 -0.9820 0.0176
vn 0.1882 -0.9820 -0.0174
vn 0.1818 -0.9820 -0.0512
vn 0.1694 -0.9819 -0.0842
vn 0.1507 -0.9820 -0.1142
vn 0.1274 -0.9820 -0.1396
vn 0.0995 -0.9819 -0.1614
vn 0.0683 -0.9820 -0.1762
vn 0.0348 -0.9820 -0.1858
vn -0.0000 -1.0000 -0.0000
vn 0.0003 -1.0000 -0.0003
vn -0.0001 1.0000 0.0002
vn -0.6298 -0.0004 0.7768
vn -0.6297 -0.0004 0.7768
vn -0.6298 -0.0003 0.7768
vn 0.7768 -0.0000 0.6297
vn 0.7769 -0.0001 0.6296
vn 0.7767 0.0002 0.6298
vn 0.6298 0.0002 -0.7768
vn 0.6298 0.0003 -0.7768
vn 0.6297 0.0002 -0.7768
vn -0.7768 -0.0000 -0.6297
vn -0.0000 -0.0000 1.0000
vn -1.0000 -0.0000 -0.0000
vn 0.9999 0.0135 0.0057
vn 1.0000 0.0063 -0.0000
vn 0.9999 0.0116 0.0042
vn 0.9998 0.0189 0.0098
vt 0.000000 1.000000
vt 0.000000 0.941200
vt 0.029400 0.941200
vt 0.029400 1.000000
vt 0.058800 0.941200
vt 0.058800 1.000000
vt 0.088200 0.941200
vt 0.088200 1.000000
vt 0.117600 0.941200
vt 0.117600 1.000000
vt 0.147100 0.941200
vt 0.147100 1.000000
vt 0.176500 0.941200
vt 0.176500 1.000000
vt 0.205900 0.941200
vt 0.205900 1.000000
vt 0.235300 0.941200
vt 0.235300 1.000000
vt 0.264700 0.941200
vt 0.264700 1.000000
vt 0.294100 0.941200
vt 0.294100 1.000000
vt 0.323500 0.941200
vt 0.323500 1.000000
vt 0.352900 0.941200
vt 0.352900 1.000000
vt 0.382400 0.941200
vt 0.382400 1.000000
vt 0.411800 0.941200
vt 0.411800 1.000000
vt 0.441200 0.941200
vt 0.441200 1.000000
vt 0.470600 0.941200
vt 0.470600 1.000000
vt 0.500000 0.941200
vt 0.500000 1.000000
vt 0.529400 0.941200
vt 0.529400 1.000000
vt 0.558800 0.941200
vt 0.558800 1.000000
vt 0.588200 0.941200
vt 0.588200 1.000000
vt 0.617600 0.941200
vt 0.617600 1.000000
vt 0.647100 0.941200
vt 0.647100 1.000000
vt 0.676500 0.941200
vt 0.676500 1.000000
vt 0.705900 0.941200
vt 0.705900 1.000000
vt 0.735300 0.941200
vt 0.735300 1.000000
vt 0.764700 0.941200
vt 0.764700 1.000000
vt 0.794100 0.941200
vt 0.794100 1.000000
vt 0.823500 0.941200
vt 0.823500 1.000000
vt 0.852900 0.941200
vt 0.852900 1.000000
vt 0.882400 0.941200
vt 0.882400 1.000000
vt 0.911800 0.941200
vt 0.911800 1.000000
vt 0.941200 0.941200
vt 0.941200 1.000000
vt 0.970600 0.941200
vt 0.970600 1.000000
vt 1.000000 0.941200
vt 0.000000 0.882400
vt 0.029400 0.882400
vt 0.058800 0.882400
vt 0.088200 0.882400
vt 0.117600 0.882400
vt 0.147100 0.882400
vt 0.176500 0.882400
vt 0.205900 0.882400
vt 0.235300 0.882400
vt 0.264700 0.882400
vt 0.294100 0.882400
vt 0.323500 0.882400
vt 0.352900 0.882400
vt 0.382400 0.882400
vt 0.411800 0.882400
vt 0.441200 0.882400
vt 0.470600 0.882400
vt 0.500000 0.882400
vt 0.529400 0.882400
vt 0.558800 0.882400
vt 0.588200 0.882400
vt 0.617600 0.882400
vt 0.647100 0.882400
vt 0.676500 0.882400
vt 0.705900 0.882400
vt 0.735300 0.882400
vt 0.764700 0.882400
vt 0.794100 0.882400
vt 0.823500 0.882400
vt 0.852900 0.882400
vt 0.882400 0.882400
vt 0.911800 0.882400
vt 0.941200 0.882400
vt 0.970600 0.882400
vt 1.000000 0.882400
vt 0.000000 0.823500
vt 0.029400 0.823500
vt 0.058800 0.823500
vt 0.088200 0.823500
vt 0.117600 0.823500
vt 0.147100 0.823500
vt 0.176500 0.823500
vt 0.205900 0.823500
vt 0.235300 0.823500
vt 0.264700 0.823500
vt 0.294100 0.823500
vt 0.323500 0.823500
vt 0.352900 0.823500
vt 0.382400 0.823500
vt 0.411800 0.823500
vt 0.441200 0.823500
vt 0.470600 0.823500
vt 0.500000 0.823500
vt 0.529400 0.823500
vt 0.558800 0.823500
vt 0.588200 0.823500
vt 0.617600 0.823500
vt 0.647100 0.823500
vt 0.676500 0.823500
vt 0.705900 0.823500
vt 0.735300 0.823500
vt 0.764700 0.823500
vt 0.794100 0.823500
vt 0.823500 0.823500
vt 0.852900 0.823500
vt 0.882400 0.823500
vt 0.911800 0.823500
vt 0.941200 0.823500
vt 0.970600 0.823500
vt 1.000000 0.823500
vt 0.000000 0.764700
vt 0.029400 0.764700
vt 0.058800 0.764700
vt 0.088200 0.764700
vt 0.117600 0.764700
vt 0.147100 0.764700
vt 0.176500 0.764700
vt 0.205900 0.764700
vt 0.235300 0.764700
vt 0.264700 0.764700
vt 0.294100 0.764700
vt 0.323500 0.764700
vt 0.352900 0.764700
vt 0.382400 0.764700
vt 0.411800 0.764700
vt 0.441200 0.764700
vt 0.470600 0.764700
vt 0.500000 0.764700
vt 0.529400 0.764700
vt 0.558800 0.764700
vt 0.588200 0.764700
vt 0.617600 0.764700
vt 0.647100 0.764700
vt 0.676500 0.764700
vt 0.705900 0.764700
vt 0.735300 0.764700
vt 0.764700 0.764700
vt 0.794100 0.764700
vt 0.823500 0.764700
vt 0.852900 0.764700
vt 0.882400 0.764700
vt 0.911800 0.764700
vt 0.941200 0.764700
vt 0.970600 0.764700
vt 1.000000 0.764700
vt 0.000000 0.705900
vt 0.029400 0.705900
vt 0.058800 0.705900
vt 0.088200 0.705900
vt 0.117600 0.705900
vt 0.147100 0.705900
vt 0.176500 0.705900
vt 0.205900 0.705900
vt 0.235300 0.705900
vt 0.264700 0.705900
vt 0.294100 0.705900
vt 0.323500 0.705900
vt 0.352900 0.705900
vt 0.382400 0.705900
vt 0.411800 0.705900
vt 0.441200 0.705900
vt 0.470600 0.705900
vt 0.500000 0.705900
vt 0.529400 0.705900
vt 0.558800 0.705900
vt 0.588200 0.705900
vt 0.617600 0.705900
vt 0.647100 0.705900
vt 0.676500 0.705900
vt 0.705900 0.705900
vt 0.735300 0.705900
vt 0.764700 0.705900
vt 0.794100 0.705900
vt 0.823500 0.705900
vt 0.852900 0.705900
vt 0.882400 0.705900
vt 0.911800 0.705900
vt 0.941200 0.705900
vt 0.970600 0.705900
vt 1.000000 0.705900
vt 0.000000 0.647100
vt 0.029400 0.647100
vt 0.058800 0.647100
vt 0.088200 0.647100
vt 0.117600 0.647100
vt 0.147100 0.647100
vt 0.176500 0.647100
vt 0.205900 0.647100
vt 0.235300 0.647100
vt 0.264700 0.647100
vt 0.294100 0.647100
vt 0.323500 0.647100
vt 0.352900 0.647100
vt 0.382400 0.647100
vt 0.411800 0.647100
vt 0.441200 0.647100
vt 0.470600 0.647100
vt 0.500000 0.647100
vt 0.529400 0.647100
vt 0.558800 0.647100
vt 0.588200 0.647100
vt 0.617600 0.647100
vt 0.647100 0.647100
vt 0.676500 0.647100
vt 0.705900 0.647100
vt 0.735300 0.647100
vt 0.764700 0.647100
vt 0.794100 0.647100
vt 0.823500 0.647100
vt 0.852900 0.647100
vt 0.882400 0.647100
vt 0.911800 0.647100
vt 0.941200 0.647100
vt 0.970600 0.647100
vt 1.000000 0.647100
vt 0.000000 0.588200
vt 0.029400 0.588200
vt 0.058800 0.588200
vt 0.088200 0.588200
vt 0.117600 0.588200
vt 0.147100 0.588200
vt 0.176500 0.588200
vt 0.205900 0.588200
vt 0.235300 0.588200
vt 0.264700 0.588200
vt 0.294100 0.588200
vt 0.323500 0.588200
vt 0.352900 0.588200
vt 0.382400 0.588200
vt 0.411800 0.588200
vt 0.441200 0.588200
vt 0.470600 0.588200
vt 0.500000 0.588200
vt 0.529400 0.588200
vt 0.558800 0.588200
vt 0.588200 0.588200
vt 0.617600 0.588200
vt 0.647100 0.588200
vt 0.676500 0.588200
vt 0.705900 0.588200
vt 0.735300 0.588200
vt 0.764700 0.588200
vt 0.794100 0.588200
vt 0.823500 0.588200
vt 0.852900 0.588200
vt 0.882400 0.588200
vt 0.911800 0.588200
vt 0.941200 0.588200
vt 0.970600 0.588200
vt 1.000000 0.588200
vt 0.000000 0.529400
vt 0.029400 0.529400
vt 0.058800 0.529400
vt 0.088200 0.529400
vt 0.117600 0.529400
vt 0.147100 0.529400
vt 0.176500 0.529400
vt 0.205900 0.529400
vt 0.235300 0.529400
vt 0.264700 0.529400
vt 0.294100 0.529400
vt 0.323500 0.529400
vt 0.352900 0.529400
vt 0.382400 0.529400
vt 0.411800 0.529400
vt 0.441200 0.529400
vt 0.470600 0.529400
vt 0.500000 0.529400
vt 0.529400 0.529400
vt 0.558800 0.529400
vt 0.588200 0.529400
vt 0.617600 0.529400
vt 0.647100 0.529400
vt 0.676500 0.529400
vt 0.705900 0.529400
vt 0.735300 0.529400
vt 0.764700 0.529400
vt 0.794100 0.529400
vt 0.823500 0.529400
vt 0.852900 0.529400
vt 0.882400 0.529400
vt 0.911800 0.529400
vt 0.941200 0.529400
vt 0.970600 0.529400
vt 1.000000 0.529400
vt 0.000000 0.470600
vt 0.029400 0.470600
vt 0.058800 0.470600
vt 0.088200 0.470600
vt 0.117600 0.470600
vt 0.147100 0.470600
vt 0.176500 0.470600
vt 0.205900 0.470600
vt 0.235300 0.470600
vt 0.264700 0.470600
vt 0.294100 0.470600
vt 0.323500 0.470600
vt 0.352900 0.470600
vt 0.382400 0.470600
vt 0.411800 0.470600
vt 0.441200 0.470600
vt 0.470600 0.470600
vt 0.500000 0.470600
vt 0.529400 0.470600
vt 0.558800 0.470600
vt 0.588200 0.470600
vt 0.617600 0.470600
vt 0.647100 0.470600
vt 0.676500 0.470600
vt 0.705900 0.470600
vt 0.735300 0.470600
vt 0.764700 0.470600
vt 0.794100 0.470600
vt 0.823500 0.470600
vt 0.852900 0.470600
vt 0.882400 0.470600
vt 0.911800 0.470600
vt 0.941200 0.470600
vt 0.970600 0.470600
vt 1.000000 0.470600
vt 0.000000 0.411800
vt 0.029400 0.411800
vt 0.058800 0.411800
vt 0.088200 0.411800
vt 0.117600 0.411800
vt 0.147100 0.411800
vt 0.176500 0.411800
vt 0.205900 0.411800
vt 0.235300 0.411800
vt 0.264700 0.411800
vt 0.294100 0.411800
vt 0.323500 0.411800
vt 0.352900 0.411800
vt 0.382400 0.411800
vt 0.411800 0.411800
vt 0.441200 0.411800
vt 0.470600 0.411800
vt 0.500000 0.411800
vt 0.529400 0.411800
vt 0.558800 0.411800
vt 0.588200 0.411800
vt 0.617600 0.411800
vt 0.647100 0.411800
vt 0.676500 0.411800
vt 0.705900 0.411800
vt 0.735300 0.411800
vt 0.764700 0.411800
vt 0.794100 0.411800
vt 0.823500 0.411800
vt 0.852900 0.411800
vt 0.882400 0.411800
vt 0.911800 0.411800
vt 0.941200 0.411800
vt 0.970600 0.411800
vt 1.000000 0.411800
vt 0.000000 0.352900
vt 0.029400 0.352900
vt 0.058800 0.352900
vt 0.088200 0.352900
vt 0.117600 0.352900
vt 0.147100 0.352900
vt 0.176500 0.352900
vt 0.205900 0.352900
vt 0.235300 0.352900
vt 0.264700 0.352900
vt 0.294100 0.352900
vt 0.323500 0.352900
vt 0.352900 0.352900
vt 0.382400 0.352900
vt 0.411800 0.352900
vt 0.441200 0.352900
vt 0.470600 0.352900
vt 0.500000 0.352900
vt 0.529400 0.352900
vt 0.558800 0.352900
vt 0.588200 0.352900
vt 0.617600 0.352900
vt 0.647100 0.352900
vt 0.676500 0.352900
vt 0.705900 0.352900
vt 0.735300 0.352900
vt 0.764700 0.352900
vt 0.794100 0.352900
vt 0.823500 0.352900
vt 0.852900 0.352900
vt 0.882400 0.352900
vt 0.911800 0.352900
vt 0.941200 0.352900
vt 0.970600 0.352900
vt 1.000000 0.352900
vt 0.000000 0.294100
vt 0.029400 0.294100
vt 0.058800 0.294100
vt 0.088200 0.294100
vt 0.117600 0.294100
vt 0.147100 0.294100
vt 0.176500 0.294100
vt 0.205900 0.294100
vt 0.235300 0.294100
vt 0.264700 0.294100
vt 0.294100 0.294100
vt 0.323500 0.294100
vt 0.352900 0.294100
vt 0.382400 0.294100
vt 0.411800 0.294100
vt 0.441200 0.294100
vt 0.470600 0.294100
vt 0.500000 0.294100
vt 0.529400 0.294100
vt 0.558800 0.294100
vt 0.588200 0.294100
vt 0.617600 0.294100
vt 0.647100 0.294100
vt 0.676500 0.294100
vt 0.705900 0.294100
vt 0.735300 0.294100
vt 0.764700 0.294100
vt 0.794100 0.294100
vt 0.823500 0.294100
vt 0.852900 0.294100
vt 0.882400 0.294100
vt 0.911800 0.294100
vt 0.941200 0.294100
vt 0.970600 0.294100
vt 1.000000 0.294100
vt 0.000000 0.235300
vt 0.029400 0.235300
vt 0.058800 0.235300
vt 0.088200 0.235300
vt 0.117600 0.235300
vt 0.147100 0.235300
vt 0.176500 0.235300
vt 0.205900 0.235300
vt 0.235300 0.235300
vt 0.264700 0.235300
vt 0.294100 0.235300
vt 0.323500 0.235300
vt 0.352900 0.235300
vt 0.382400 0.235300
vt 0.411800 0.235300
vt 0.441200 0.235300
vt 0.470600 0.235300
vt 0.500000 0.235300
vt 0.529400 0.235300
vt 0.558800 0.235300
vt 0.588200 0.235300
vt 0.617600 0.235300
vt 0.647100 0.235300
vt 0.676500 0.235300
vt 0.705900 0.235300
vt 0.735300 0.235300
vt 0.764700 0.235300
vt 0.794100 0.235300
vt 0.823500 0.235300
vt 0.852900 0.235300
vt 0.882400 0.235300
vt 0.911800 0.235300
vt 0.941200 0.235300
vt 0.970600 0.235300
vt 1.000000 0.235300
vt 0.000000 0.176500
vt 0.029400 0.176500
vt 0.058800 0.176500
vt 0.088200 0.176500
vt 0.117600 0.176500
vt 0.147100 0.176500
vt 0.176500 0.176500
vt 0.205900 0.176500
vt 0.235300 0.176500
vt 0.264700 0.176500
vt 0.294100 0.176500
vt 0.323500 0.176500
vt 0.352900 0.176500
vt 0.382400 0.176500
vt 0.411800 0.176500
vt 0.441200 0.176500
vt 0.470600 0.176500
vt 0.500000 0.176500
vt 0.529400 0.176500
vt 0.558800 0.176500
vt 0.588200 0.176500
vt 0.617600 0.176500
vt 0.647100 0.176500
vt 0.676500 0.176500
vt 0.705900 0.176500
vt 0.735300 0.176500
vt 0.764700 0.176500
vt 0.794100 0.176500
vt 0.823500 0.176500
vt 0.852900 0.176500
vt 0.882400 0.176500
vt 0.911800 0.176500
vt 0.941200 0.176500
vt 0.970600 0.176500
vt 1.000000 0.176500
vt 0.000000 0.117600
vt 0.029400 0.117600
vt 0.058800 0.117600
vt 0.088200 0.117600
vt 0.117600 0.117600
vt 0.147100 0.117600
vt 0.176500 0.117600
vt 0.205900 0.117600
vt 0.235300 0.117600
vt 0.264700 0.117600
vt 0.294100 0.117600
vt 0.323500 0.117600
vt 0.352900 0.117600
vt 0.382400 0.117600
vt 0.411800 0.117600
vt 0.441200 0.117600
vt 0.470600 0.117600
vt 0.500000 0.117600
vt 0.529400 0.117600
vt 0.558800 0.117600
vt 0.588200 0.117600
vt 0.617600 0.117600
vt 0.647100 0.117600
vt 0.676500 0.117600
vt 0.705900 0.117600
vt 0.735300 0.117600
vt 0.764700 0.117600
vt 0.794100 0.117600
vt 0.823500 0.117600
vt 0.852900 0.117600
vt 0.882400 0.117600
vt 0.911800 0.117600
vt 0.941200 0.117600
vt 0.970600 0.117600
vt 1.000000 0.117600
vt 0.000000 0.058800
vt 0.029400 0.058800
vt 0.058800 0.058800
vt 0.088200 0.058800
vt 0.117600 0.058800
vt 0.147100 0.058800
vt 0.176500 0.058800
vt 0.205900 0.058800
vt 0.235300 0.058800
vt 0.264700 0.058800
vt 0.294100 0.058800
vt 0.323500 0.058800
vt 0.352900 0.058800
vt 0.382400 0.058800
vt 0.411800 0.058800
vt 0.441200 0.058800
vt 0.470600 0.058800
vt 0.500000 0.058800
vt 0.529400 0.058800
vt 0.558800 0.058800
vt 0.588200 0.058800
vt 0.617600 0.058800
vt 0.647100 0.058800
vt 0.676500 0.058800
vt 0.705900 0.058800
vt 0.735300 0.058800
vt 0.764700 0.058800
vt 0.794100 0.058800
vt 0.823500 0.058800
vt 0.852900 0.058800
vt 0.882400 0.058800
vt 0.911800 0.058800
vt 0.941200 0.058800
vt 0.970600 0.058800
vt 1.000000 0.058800
vt 0.000000 -0.000000
vt 0.029400 -0.000000
vt 0.058800 -0.000000
vt 0.088200 -0.000000
vt 0.117600 -0.000000
vt 0.147100 -0.000000
vt 0.176500 -0.000000
vt 0.205900 -0.000000
vt 0.235300 -0.000000
vt 0.264700 -0.000000
vt 0.294100 -0.000000
vt 0.323500 -0.000000
vt 0.352900 -0.000000
vt 0.382400 -0.000000
vt 0.411800 -0.000000
vt 0.441200 -0.000000
vt 0.470600 -0.000000
vt 0.500000 -0.000000
vt 0.529400 -0.000000
vt 0.558800 -0.000000
vt 0.588200 -0.000000
vt 0.617600 -0.000000
vt 0.647100 -0.000000
vt 0.676500 -0.000000
vt 0.705900 -0.000000
vt 0.735300 -0.000000
vt 0.764700 -0.000000
vt 0.794100 -0.000000
vt 0.823500 -0.000000
vt 0.852900 -0.000000
vt 0.882400 -0.000000
vt 0.911800 -0.000000
vt 0.941200 -0.000000
vt 0.970600 -0.000000
vt 1.000000 0.000000
vt 1.000000 1.000000
s 1
usemtl sphere
f 1/1/1 2/2/2 3/3/3
f 1/4/1 3/3/3 4/5/4
f 1/6/1 4/5/4 5/7/5
f 1/8/1 5/7/5 6/9/6
f 1/10/1 6/9/6 7/11/7
f 1/12/1 7/11/7 8/13/8
f 1/14/1 8/13/8 9/15/9
f 1/16/1 9/15/9 10/17/10
f 1/18/1 10/17/10 11/19/11
f 1/20/1 11/19/11 12/21/12
f 1/22/1 12/21/12 13/23/13
f 1/24/1 13/23/13 14/25/14
f 1/26/1 14/25/14 15/27/15
f 1/28/1 15/27/15 16/29/16
f 1/30/1 16/29/16 17/31/17
f 1/32/1 17/31/17 18/33/18
f 1/34/1 18/33/18 19/35/19
f 1/36/1 19/35/19 20/37/20
f 1/38/1 20/37/20 21/39/21
f 1/40/1 21/39/21 22/41/22
f 1/42/1 22/41/22 23/43/23
f 1/44/1 23/43/23 24/45/24
f 1/46/1 24/45/24 25/47/25
f 1/48/1 25/47/25 26/49/26
f 1/50/1 26/49/26 27/51/27
f 1/52/1 27/51/27 28/53/28
f 1/54/1 28/53/28 29/55/29
f 1/56/1 29/55/29 30/57/30
f 1/58/1 30/57/30 31/59/31
f 1/60/1 31/59/31 32/61/32
f 1/62/1 32/61/32 33/63/33
f 1/64/1 33/63/33 34/65/34
f 1/66/1 34/65/34 35/67/35
f 1/68/1 35/67/35 2/69/2
f 2/2/2 36/70/36 37/71/37
f 2/2/2 37/71/37 3/3/3
f 3/3/3 37/71/37 38/72/38
f 3/3/3 38/72/38 4/5/4
f 4/5/4 38/72/38 39/73/39
f 4/5/4 39/73/39 5/7/5
f 5/7/5 39/73/39 40/74/40
f 5/7/5 40/74/40 6/9/6
f 6/9/6 40/74/40 41/75/41
f 6/9/6 41/75/41 7/11/7
f 7/11/7 41/75/41 42/76/42
f 7/11/7 42/76/42 8/13/8
f 8/13/8 42/76/42 43/77/43
f 8/13/8 43/77/43 9/15/9
f 9/15/9 43/77/43 44/78/44
f 9/15/9 44/78/44 10/17/10
f 10/17/10 44/78/44 45/79/45
f 10/17/10 45/79/45 11/19/11
f 11/19/11 45/79/45 46/80/46
f 11/19/11 46/80/46 12/21/12
f 12/21/12 46/80/46 47/81/47
f 12/21/12 47/81/47 13/23/13
f 13/23/13 47/81/47 48/82/48
f 13/23/13 48/82/48 14/25/14
f 14/25/14 48/82/48 49/83/49
f 14/25/14 49/83/49 15/27/15
f 15/27/15 49/83/49 50/84/50
f 15/27/15 50/84/50 16/29/16
f 16/29/16 50/84/50 51/85/51
f 16/29/16 51/85/51 17/31/17
f 17/31/17 51/85/51 52/86/52
f 17/31/17 52/86/52 18/33/18
f 18/33/18 52/86/52 53/87/53
f 18/33/18 53/87/53 19/35/19
f 19/35/19 53/87/53 54/88/54
f 19/35/19 54/88/54 20/37/20
f 20/37/20 54/88/54 55/89/55
f 20/37/20 55/89/55 21/39/21
f 21/39/21 55/89/55 56/90/56
f 21/39/21 56/90/56 22/41/22
f 22/41/22 56/90/56 57/91/57
f 22/41/22 57/91/57 23/43/23
f 23/43/23 57/91/57 58/92/58
f 23/43/23 58/92/58 24/45/24
f 24/45/24 58/92/58 59/93/59
f 24/45/24 59/93/59 25/47/25
f 25/47/25 59/93/59 60/94/60
f 25/47/25 60/94/60 26/49/26
f 26/49/26 60/94/60 61/95/61
f 26/49/26 61/95/61 27/51/27
f 27/51/27 61/95/61 62/96/62
f 27/51/27 62/96/62 28/53/28
f 28/53/28 62/96/62 63/97/63
f 28/53/28 63/97/63 29/55/29
f 29/55/29 63/97/63 64/98/64
f 29/55/29 64/98/64 30/57/30
f 30/57/30 64/98/64 65/99/65
f 30/57/30 65/99/65 31/59/31
f 31/59/31 65/99/65 66/100/66
f 31/59/31 66/100/66 32/61/32
f 32/61/32 66/100/66 67/101/67
f 32/61/32 67/101/67 33/63/33
f 33/63/33 67/101/67 68/102/68
f 33/63/33 68/102/68 34/65/34
f 34/65/34 68/102/68 69/103/69
f 34/65/34 69/103/69 35/67/35
f 35/67/35 69/103/69 36/104/36
f 35/67/35 36/104/36 2/69/2
f 36/70/36 70/105/70 71/106/71
f 36/70/36 71/106/71 37/71/37
f 37/71/37 71/106/71 72/107/72
f 37/71/37 72/107/72 38/72/38
f 38/72/38 72/107/72 73/108/73
f 38/72/38 73/108/73 39/73/39
f 39/73/39 73/108/73 74/109/74
f 39/73/39 74/109/74 40/74/40
f 40/74/40 74/109/74 75/110/75
f 40/74/40 75/110/75 41/75/41
f 41/75/41 75/110/75 76/111/76
f 41/75/41 76/111/76 42/76/42
f 42/76/42 76/111/76 77/112/77
f 42/76/42 77/112/77 43/77/43
f 43/77/43 77/112/77 78/113/78
f 43/77/43 78/113/78 44/78/44
f 44/78/44 78/113/78 79/114/79
f 44/78/44 79/114/79 45/79/45
f 45/79/45 79/114/79 80/115/80
f 45/79/45 80/115/80 46/80/46
f 46/80/46 80/115/80 81/116/81
f 46/80/46 81/116/81 47/81/47
f 47/81/47 81/116/81 82/117/82
f 47/81/47 82/117/82 48/82/48
f 48/82/48 82/117/82 83/118/83
f 48/82/48 83/118/83 49/83/49
f 49/83/49 83/118/83 84/119/84
f 49/83/49 84/119/84 50/84/50
f 50/84/50 84/119/84 85/120/85
f 50/84/50 85/120/85 51/85/51
f 51/85/51 85/120/85 86/121/86
f 51/85/51 86/121/86 52/86/52
f 52/86/52 86/121/86 87/122/87
f 52/86/52 87/122/87 53/87/53
f 53/87/53 87/122/87 88/123/88
f 53/87/53 88/123/88 54/88/54
f 54/88/54 88/123/88 89/124/89
f 54/88/54 89/124/89 55/89/55
f 55/89/55 89/124/89 90/125/90
f 55/89/55 90/125/90 56/90/56
f 56/90/56 90/125/90 91/126/91
f 56/90/56 91/126/91 57/91/57
f 57/91/57 91/126/91 92/127/92
f 57/91/57 92/127/92 58/92/58
f 58/92/58 92/127/92 93/128/93
f 58/92/58 93/128/93 59/93/59
f 59/93/59 93/128/93 94/129/94
f 59/93/59 94/129/94 60/94/60
f 60/94/60 94/129/94 95/130/95
f 60/94/60 95/130/95 61/95/61
f 61/95/61 95/130/95 96/131/96
f 61/95/61 96/131/96 62/96/62
f 62/96/62 96/131/96 97/132/97
f 62/96/62 97/132/97 63/97/63
f 63/97/63 97/132/97 98/133/98
f 63/97/63 98/133/98 64/98/64
f 64/98/64 98/133/98 99/134/99
f 64/98/64 99/134/99 65/99/65
f 65/99/65 99/134/99 100/135/100
f 65/99/65 100/135/100 66/100/66
f 66/100/66 100/135/100 101/136/101
f 66/100/66 101/136/101 67/101/67
f 67/101/67 101/136/101 102/137/102
f 67/101/67 102/137/102 68/102/68
f 68/102/68 102/137/102 103/138/103
f 68/102/68 103/138/103 69/103/69
f 69/103/69 103/138/103 70/139/70
f 69/103/69 70/139/70 36/104/36
f 70/105/70 104/140/104 105/141/105
f 70/105/70 105/141/105 71/106/71
f 71/106/71 105/141/105 106/142/106
f 71/106/71 106/142/106 72/107/72
f 72/107/72 106/142/106 107/143/107
f 72/107/72 107/143/107 73/108/73
f 73/108/73 107/143/107 108/144/108
f 73/108/73 108/144/108 74/109/74
f 74/109/74 108/144/108 109/145/109
f 74/109/74 109/145/109 75/110/75
f 75/110/75 109/145/109 110/146/110
f 75/110/75 110/146/110 76/111/76
f 76/111/76 110/146/110 111/147/111
f 76/111/76 111/147/111 77/112/77
f 77/112/77 111/147/111 112/148/112
f 77/112/77 112/148/112 78/113/78
f 78/113/78 112/148/112 113/149/113
f 78/113/78 113/149/113 79/114/79
f 79/114/79 113/149/113 114/150/114
f 79/114/79 114/150/114 80/115/80
f 80/115/80 114/150/114 115/151/115
f 80/115/80 115/151/115 81/116/81
f 81/116/81 115/151/115 116/152/116
f 81/116/81 116/152/116 82/117/82
f 82/117/82 116/152/116 117/153/117
f 82/117/82 117/153/117 83/118/83
f 83/118/83 117/153/117 118/154/118
f 83/118/83 118/154/118 84/119/84
f 84/119/84 118/154/118 119/155/119
f 84/119/84 119/155/119 85/120/85
f 85/120/85 119/155/119 120/156/120
f 85/120/85 120/156/120 86/121/86
f 86/121/86 120/156/120 121/157/121
f 86/121/86 121/157/121 87/122/87
f 87/122/87 121/157/121 122/158/122
f 87/122/87 122/158/122 88/123/88
f 88/123/88 122/158/122 123/159/123
f 88/123/88 123/159/123 89/124/89
f 89/124/89 123/159/123 124/160/124
f 89/124/89 124/160/124 90/125/90
f 90/125/90 124/160/124 125/161/125
f 90/125/90 125/161/125 91/126/91
f 91/126/91 125/161/125 126/162/126
f 91/126/91 126/162/126 92/127/92
f 92/127/92 126/162/126 127/163/127
f 92/127/92 127/163/127 93/128/93
f 93/128/93 127/163/127 128/164/128
f 93/128/93 128/164/128 94/129/94
f 94/129/94 128/164/128 129/165/129
f 94/129/94 129/165/129 95/130/95
f 95/130/95 129/165/129 130/166/130
f 95/130/95 130/166/130 96/131/96
f 96/131/96 130/166/130 131/167/131
f 96/131/96 131/167/131 97/132/97
f 97/132/97 131/167/131 132/168/132
f 97/132/97 132/168/132 98/133/98
f 98/133/98 132/168/132 133/169/133
f 98/133/98 133/169/133 99/134/99
f 99/134/99 133/169/133 134/170/134
f 99/134/99 134/170/134 100/135/100
f 100/135/100 134/170/134 135/171/135
f 100/135/100 135/171/135 101/136/101
f 101/136/101 135/171/135 136/172/136
f 101/136/101 136/172/136 102/137/102
f 102/137/102 136/172/136 137/173/137
f 102/137/102 137/173/137 103/138/103
f 103/138/103 137/173/137 104/174/104
f 103/138/103 104/174/104 70/139/70
f 104/140/104 138/175/138 139/176/139
f 104/140/104 139/176/139 105/141/105
f 105/141/105 139/176/139 140/177/140
f 105/141/105 140/177/140 106/142/106
f 106/142/106 140/177/140 141/178/141
f 106/142/106 141/178/141 107/143/107
f 107/143/107 141/178/141 142/179/142
f 107/143/107 142/179/142 108/144/108
f 108/144/108 142/179/142 143/180/143
f 108/144/108 143/180/143 109/145/109
f 109/145/109 143/180/143 144/181/144
f 109/145/109 144/181/144 110/146/110
f 110/146/110 144/181/144 145/182/145
f 110/146/110 145/182/145 111/147/111
f 111/147/111 145/182/145 146/183/146
f 111/147/111 146/183/146 112/148/112
f 112/148/112 146/183/146 147/184/147
f 112/148/112 147/184/147 113/149/113
f 113/149/113 147/184/147 148/185/148
f 113/149/113 148/185/148 114/150/114
f 114/150/114 148/185/148 149/186/149
f 114/150/114 149/186/149 115/151/115
f 115/151/115 149/186/149 150/187/150
f 115/151/115 150/187/150 116/152/116
f 116/152/116 150/187/150 151/188/151
f 116/152/116 151/188/151 117/153/117
f 117/153/117 151/188/151 152/189/152
f 117/153/117 152/189/152 118/154/118
f 118/154/118 152/189/152 153/190/153
f 118/154/118 153/190/153 119/155/119
f 119/155/119 153/190/153 154/191/154
f 119/155/119 154/191/154 120/156/120
f 120/156/120 154/191/154 155/192/155
f 120/156/120 155/192/155 121/157/121
f 121/157/121 155/192/155 156/193/156
f 121/157/121 156/193/156 122/158/122
f 122/158/122 156/193/156 157/194/157
f 122/158/122 157/194/157 123/159/123
f 123/159/123 157/194/157 158/195/158
f 123/159/123 158/195/158 124/160/124
f 124/160/124 158/195/158 159/196/159
f 124/160/124 159/196/159 125/161/125
f 125/161/125 159/196/159 160/197/160
f 125/161/125 160/197/160 126/162/126
f 126/162/126 160/197/160 161/198/161
f 126/162/126 161/198/161 127/163/127
f 127/163/127 161/198/161 162/199/162
f 127/163/127 162/199/162 128/164/128
f 128/164/128 162/199/162 163/200/163
f 128/164/128 163/200/163 129/165/129
f 129/165/129 163/200/163 164/201/164
f 129/165/129 164/201/164 130/166/130
f 130/166/130 164/201/164 165/202/165
f 130/166/130 165/202/165 131/167/131
f 131/167/131 165/202/165 166/203/166
f 131/167/131 166/203/166 132/168/132
f 132/168/132 166/203/166 167/204/167
f 132/168/132 167/204/167 133/169/133
f 133/169/133 167/204/167 168/205/168
f 133/169/133 168/205/168 134/170/134
f 134/170/134 168/205/168 169/206/169
f 134/170/134 169/206/169 135/171/135
f 135/171/135 169/206/169 170/207/170
f 135/171/135 170/207/170 136/172/136
f 136/172/136 170/207/170 171/208/171
f 136/172/136 171/208/171 137/173/137
f 137/173/137 171/208/171 138/209/138
f 137/173/137 138/209/138 104/174/104
f 138/175/138 172/210/172 173/211/173
f 138/175/138 173/211/173 139/176/139
f 139/176/139 173/211/173 174/212/174
f 139/176/139 174/212/174 140/177/140
f 140/177/140 174/212/174 175/213/175
f 140/177/140 175/213/175 141/178/141
f 141/178/141 175/213/175 176/214/176
f 141/178/141 176/214/176 142/179/142
f 142/179/142 176/214/176 177/215/177
f 142/179/142 177/215/177 143/180/143
f 143/180/143 177/215/177 178/216/178
f 143/180/143 178/216/178 144/181/144
f 144/181/144 178/216/178 179/217/179
f 144/181/144 179/217/179 145/182/145
f 145/182/145 179/217/179 180/218/180
f 145/182/145 180/218/180 146/183/146
f 146/183/146 180/218/180 181/219/181
f 146/183/146 181/219/181 147/184/147
f 147/184/147 181/219/181 182/220/182
f 147/184/147 182/220/182 148/185/148
f 148/185/148 182/220/182 183/221/183
f 148/185/148 183/221/183 149/186/149
f 149/186/149 183/221/183 184/222/184
f 149/186/149 184/222/184 150/187/150
f 150/187/150 184/222/184 185/223/185
f 150/187/150 185/223/185 151/188/151
f 151/188/151 185/223/185 186/224/186
f 151/188/151 186/224/186 152/189/152
f 152/189/152 186/224/186 187/225/187
f 152/189/152 187/225/187 153/190/153
f 153/190/153 187/225/187 188/226/188
f 153/190/153 188/226/188 154/191/154
f 154/191/154 188/226/188 189/227/189
f 154/191/154 189/227/189 155/192/155
f 155/192/155 189/227/189 190/228/190
f 155/192/155 190/228/190 156/193/156
f 156/193/156 190/228/190 191/229/191
f 156/193/156 191/229/191 157/194/157
f 157/194/157 191/229/191 192/230/192
f 157/194/157 192/230/192 158/195/158
f 158/195/158 192/230/192 193/231/193
f 158/195/158 193/231/193 159/196/159
f 159/196/159 193/231/193 194/232/194
f 159/196/159 194/232/194 160/197/160
f 160/197/160 194/232/194 195/233/195
f 160/197/160 195/233/195 161/198/161
f 161/198/161 195/233/195 196/234/196
f 161/198/161 196/234/196 162/199/162
f 162/199/162 196/234/196 197/235/197
f 162/199/162 197/235/197 163/200/163
f 163/200/163 197/235/197 198/236/198
f 163/200/163 198/236/198 164/201/164
f 164/201/164 198/236/198 199/237/199
f 164/201/164 199/237/199 165/202/165
f 165/202/165 199/237/199 200/238/200
f 165/202/165 200/238/200 166/203/166
f 166/203/166 200/238/200 201/239/201
f 166/203/166 201/239/201 167/204/167
f 167/204/167 201/239/201 202/240/202
f 167/204/167 202/240/202 168/205/168
f 168/205/168 202/240/202 203/241/203
f 168/205/168 203/241/203 169/206/169
f 169/206/169 203/241/203 204/242/204
f 169/206/169 204/242/204 170/207/170
f 170/207/170 204/242/204 205/243/205
f 170/207/170 205/243/205 171/208/171
f 171/208/171 205/243/205 172/244/172
f 171/208/171 172/244/172 138/209/138
f 172/210/172 206/245/206 207/246/207
f 172/210/172 207/246/207 173/211/173
f 173/211/173 207/246/207 208/247/208
f 173/211/173 208/247/208 174/212/174
f 174/212/174 208/247/208 209/248/209
f 174/212/174 209/248/209 175/213/175
f 175/213/175 209/248/209 210/249/210
f 175/213/175 210/249/210 176/214/176
f 176/214/176 210/249/210 211/250/211
f 176/214/176 211/250/211 177/215/177
f 177/215/177 211/250/211 212/251/212
f 177/215/177 212/251/212 178/216/178
f 178/216/178 212/251/212 213/252/213
f 178/216/178 213/252/213 179/217/179
f 179/217/179 213/252/213 214/253/214
f 179/217/179 214/253/214 180/218/180
f 180/218/180 214/253/214 215/254/215
f 180/218/180 215/254/215 181/219/181
f 181/219/181 215/254/215 216/255/216
f 181/219/181 216/255/216 182/220/182
f 182/220/182 216/255/216 217/256/217
f 182/220/182 217/256/217 183/221/183
f 183/221/183 217/256/217 218/257/218
f 183/221/183 218/257/218 184/222/184
f 184/222/184 218/257/218 219/258/219
f 184/222/184 219/258/219 185/223/185
f 185/223/185 219/258/219 220/259/220
f 185/223/185 220/259/220 186/224/186
f 186/224/186 220/259/220 221/260/221
f 186/224/186 221/260/221 187/225/187
f 187/225/187 221/260/221 222/261/222
f 187/225/187 222/261/222 188/226/188
f 188/226/188 222/261/222 223/262/223
f 188/226/188 223/262/223 189/227/189
f 189/227/189 223/262/223 224/263/224
f 189/227/189 224/263/224 190/228/190
f 190/228/190 224/263/224 225/264/225
f 190/228/190 225/264/225 191/229/191
f 191/229/191 225/264/225 226/265/226
f 191/229/191 226/265/226 192/230/192
f 192/230/192 226/265/226 227/266/227
f 192/230/192 227/266/227 193/231/193
f 193/231/193 227/266/227 228/267/228
f 193/231/193 228/267/228 194/232/194
f 194/232/194 228/267/228 229/268/229
f 194/232/194 229/268/229 195/233/195
f 195/233/195 229/268/229 230/269/230
f 195/233/195 230/269/230 196/234/196
f 196/234/196 230/269/230 231/270/231
f 196/234/196 231/270/231 197/235/197
f 197/235/197 231/270/231 232/271/232
f 197/235/197 232/271/232 198/236/198
f 198/236/198 232/271/232 233/272/233
f 198/236/198 233/272/233 199/237/199
f 199/237/199 233/272/233 234/273/234
f 199/237/199 234/273/234 200/238/200
f 200/238/200 234/273/234 235/274/235
f 200/238/200 235/274/235 201/239/201
f 201/239/201 235/274/235 236/275/236
f 201/239/201 236/275/236 202/240/202
f 202/240/202 236/275/236 237/276/237
f 202/240/202 237/276/237 203/241/203
f 203/241/203 237/276/237 238/277/238
f 203/241/203 238/277/238 204/242/204
f 204/242/204 238/277/238 239/278/239
f 204/242/204 239/278/239 205/243/205
f 205/243/205 239/278/239 206/279/206
f 205/243/205 206/279/206 172/244/172
f 206/245/206 240/280/240 241/281/241
f 206/245/206 241/281/241 207/246/207
f 207/246/207 241/281/241 242/282/242
f 207/246/207 242/282/242 208/247/208
f 208/247/208 242/282/242 243/283/243
f 208/247/208 243/283/243 209/248/209
f 209/248/209 243/283/243 244/284/244
f 209/248/209 244/284/244 210/249/210
f 210/249/210 244/284/244 245/285/245
f 210/249/210 245/285/245 211/250/211
f 211/250/211 245/285/245 246/286/246
f 211/250/211 246/286/246 212/251/212
f 212/251/212 246/286/246 247/287/247
f 212/251/212 247/287/247 213/252/213
f 213/252/213 247/287/247 248/288/248
f 213/252/213 248/288/248 214/253/214
f 214/253/214 248/288/248 249/289/249
f 214/253/214 249/289/249 215/254/215
f 215/254/215 249/289/249 250/290/250
f 215/254/215 250/290/250 216/255/216
f 216/255/216 250/290/250 251/291/251
f 216/255/216 251/291/251 217/256/217
f 217/256/217 251/291/251 252/292/252
f 217/256/217 252/292/252 218/257/218
f 218/257/218 252/292/252 253/293/253
f 218/257/218 253/293/253 219/258/219
f 219/258/219 253/293/253 254/294/254
f 219/258/219 254/294/254 220/259/220
f 220/259/220 254/294/254 255/295/255
f 220/259/220 255/295/255 221/260/221
f 221/260/221 255/295/255 256/296/256
f 221/260/221 256/296/256 222/261/222
f 222/261/222 256/296/256 257/297/257
f 222/261/222 257/297/257 223/262/223
f 223/262/223 257/297/257 258/298/258
f 223/262/223 258/298/258 224/263/224
f 224/263/224 258/298/258 259/299/259
f 224/263/224 259/299/259 225/264/225
f 225/264/225 259/299/259 260/300/260
f 225/264/225 260/300/260 226/265/226
f 226/265/226 260/300/260 261/301/261
f 226/265/226 261/301/261 227/266/227
f 227/266/227 261/301/261 262/302/262
f 227/266/227 262/302/262 228/267/228
f 228/267/228 262/302/262 263/303/263
f 228/267/228 263/303/263 229/268/229
f 229/268/229 263/303/263 264/304/264
f 229/268/229 264/304/264 230/269/230
f 230/269/230 264/304/264 265/305/265
f 230/269/230 265/305/265 231/270/231
f 231/270/231 265/305/265 266/306/266
f 231/270/231 266/306/266 232/271/232
f 232/271/232 266/306/266 267/307/267
f 232/271/232 267/307/267 233/272/233
f 233/272/233 267/307/267 268/308/268
f 233/272/233 268/308/268 234/273/234
f 234/273/234 268/308/268 269/309/269
f 234/273/234 269/309/269 235/274/235
f 235/274/235 269/309/269 270/310/270
f 235/274/235 270/310/270 236/275/236
f 236/275/236 270/310/270 271/311/271
f 236/275/236 271/311/271 237/276/237
f 237/276/237 271/311/271 272/312/272
f 237/276/237 272/312/272 238/277/238
f 238/277/238 272/312/272 273/313/273
f 238/277/238 273/313/273 239/278/239
f 239/278/239 273/313/273 240/314/240
f 239/278/239 240/314/240 206/279/206
f 240/280/240 274/315/274 275/316/275
f 240/280/240 275/316/275 241/281/241
f 241/281/241 275/316/275 276/317/276
f 241/281/241 276/317/276 242/282/242
f 242/282/242 276/317/276 277/318/277
f 242/282/242 277/318/277 243/283/243
f 243/283/243 277/318/277 278/319/278
f 243/283/243 278/319/278 244/284/244
f 244/284/244 278/319/278 279/320/279
f 244/284/244 279/320/279 245/285/245
f 245/285/245 279/320/279 280/321/280
f 245/285/245 280/321/280 246/286/246
f 246/286/246 280/321/280 281/322/281
f 246/286/246 281/322/281 247/287/247
f 247/287/247 281/322/281 282/323/282
f 247/287/247 282/323/282 248/288/248
f 248/288/248 282/323/282 283/324/283
f 248/288/248 283/324/283 249/289/249
f 249/289/249 283/324/283 284/325/284
f 249/289/249 284/325/284 250/290/250
f 250/290/250 284/325/284 285/326/285
f 250/290/250 285/326/285 251/291/251
f 251/291/251 285/326/285 286/327/286
f 251/291/251 286/327/286 252/292/252
f 252/292/252 286/327/286 287/328/287
f 252/292/252 287/328/287 253/293/253
f 253/293/253 287/328/287 288/329/288
f 253/293/253 288/329/288 254/294/254
f 254/294/254 288/329/288 289/330/289
f 254/294/254 289/330/289 255/295/255
f 255/295/255 289/330/289 290/331/290
f 255/295/255 290/331/290 256/296/256
f 256/296/256 290/331/290 291/332/291
f 256/296/256 291/332/291 257/297/257
f 257/297/257 291/332/291 292/333/292
f 257/297/257 292/333/292 258/298/258
f 258/298/258 292/333/292 293/334/293
f 258/298/258 293/334/293 259/299/259
f 259/299/259 293/334/293 294/335/294
f 259/299/259 294/335/294 260/300/260
f 260/300/260 294/335/294 295/336/295
f 260/300/260 295/336/295 261/301/261
f 261/301/261 295/336/295 296/337/296
f 261/301/261 296/337/296 262/302/262
f 262/302/262 296/337/296 297/338/297
f 262/302/262 297/338/297 263/303/263
f 263/303/263 297/338/297 298/339/298
f 263/303/263 298/339/298 264/304/264
f 264/304/264 298/339/298 299/340/299
f 264/304/264 299/340/299 265/305/265
f 265/305/265 299/340/299 300/341/300
f 265/305/265 300/341/300 266/306/266
f 266/306/266 300/341/300 301/342/301
f 266/306/266 301/342/301 267/307/267
f 267/307/267 301/342/301 302/343/302
f 267/307/267 302/343/302 268/308/268
f 268/308/268 302/343/302 303/344/303
f 268/308/268 303/344/303 269/309/269
f 269/309/269 303/344/303 304/345/304
f 269/309/269 304/345/304 270/310/270
f 270/310/270 304/345/304 305/346/305
f 270/310/270 305/346/305 271/311/271
f 271/311/271 305/346/305 306/347/306
f 271/311/271 306/347/306 272/312/272
f 272/312/272 306/347/306 307/348/307
f 272/312/272 307/348/307 273/313/273
f 273/313/273 307/348/307 274/349/274
f 273/313/273 274/349/274 240/314/240
f 274/315/274 308/350/308 309/351/309
f 274/315/274 309/351/309 275/316/275
f 275/316/275 309/351/309 310/352/310
f 275/316/275 310/352/310 276/317/276
f 276/317/276 310/352/310 311/353/311
f 276/317/276 311/353/311 277/318/277
f 277/318/277 311/353/311 312/354/312
f 277/318/277 312/354/312 278/319/278
f 278/319/278 312/354/312 313/355/313
f 278/319/278 313/355/313 279/320/279
f 279/320/279 313/355/313 314/356/314
f 279/320/279 314/356/314 280/321/280
f 280/321/280 314/356/314 315/357/315
f 280/321/280 315/357/315 281/322/281
f 281/322/281 315/357/315 316/358/316
f 281/322/281 316/358/316 282/323/282
f 282/323/282 316/358/316 317/359/317
f 282/323/282 317/359/317 283/324/283
f 283/324/283 317/359/317 318/360/318
f 283/324/283 318/360/318 284/325/284
f 284/325/284 318/360/318 319/361/319
f 284/325/284 319/361/319 285/326/285
f 285/326/285 319/361/319 320/362/320
f 285/326/285 320/362/320 286/327/286
f 286/327/286 320/362/320 321/363/321
f 286/327/286 321/363/321 287/328/287
f 287/328/287 321/363/321 322/364/322
f 287/328/287 322/364/322 288/329/288
f 288/329/288 322/364/322 323/365/323
f 288/329/288 323/365/323 289/330/289
f 289/330/289 323/365/323 324/366/324
f 289/330/289 324/366/324 290/331/290
f 290/331/290 324/366/324 325/367/325
f 290/331/290 325/367/325 291/332/291
f 291/332/291 325/367/325 326/368/326
f 291/332/291 326/368/326 292/333/292
f 292/333/292 326/368/326 327/369/327
f 292/333/292 327/369/327 293/334/293
f 293/334/293 327/369/327 328/370/328
f 293/334/293 328/370/328 294/335/294
f 294/335/294 328/370/328 329/371/329
f 294/335/294 329/371/329 295/336/295
f 295/336/295 329/371/329 330/372/330
f 295/336/295 330/372/330 296/337/296
f 296/337/296 330/372/330 331/373/331
f 296/337/296 331/373/331 297/338/297
f 297/338/297 331/373/331 332/374/332
f 297/338/297 332/374/332 298/339/298
f 298/339/298 332/374/332 333/375/333
f 298/339/298 333/375/333 299/340/299
f 299/340/299 333/375/333 334/376/334
f 299/340/299 334/376/334 300/341/300
f 300/341/300 334/376/334 335/377/335
f 300/341/300 335/377/335 301/342/301
f 301/342/301 335/377/335 336/378/336
f 301/342/301 336/378/336 302/343/302
f 302/343/302 336/378/336 337/379/337
f 302/343/302 337/379/337 303/344/303
f 303/344/303 337/379/337 338/380/338
f 303/344/303 338/380/338 304/345/304
f 304/345/304 338/380/338 339/381/339
f 304/345/304 339/381/339 305/346/305
f 305/346/305 339/381/339 340/382/340
f 305/346/305 340/382/340 306/347/306
f 306/347/306 340/382/340 341/383/341
f 306/347/306 341/383/341 307/348/307
f 307/348/307 341/383/341 308/384/308
f 307/348/307 308/384/308 274/349/274
f 308/350/308 342/385/342 343/386/343
f 308/350/308 343/386/343 309/351/309
f 309/351/309 343/386/343 344/387/344
f 309/351/309 344/387/344 310/352/310
f 310/352/310 344/387/344 345/388/345
f 310/352/310 345/388/345 311/353/311
f 311/353/311 345/388/345 346/389/346
f 311/353/311 346/389/346 312/354/312
f 312/354/312 346/389/346 347/390/347
f 312/354/312 347/390/347 313/355/313
f 313/355/313 347/390/347 348/391/348
f 313/355/313 348/391/348 314/356/314
f 314/356/314 348/391/348 349/392/349
f 314/356/314 349/392/349 315/357/315
f 315/357/315 349/392/349 350/393/350
f 315/357/315 350/393/350 316/358/316
f 316/358/316 350/393/350 351/394/351
f 316/358/316 351/394/351 317/359/317
f 317/359/317 351/394/351 352/395/352
f 317/359/317 352/395/352 318/360/318
f 318/360/318 352/395/352 353/396/353
f 318/360/318 353/396/353 319/361/319
f 319/361/319 353/396/353 354/397/354
f 319/361/319 354/397/354 320/362/320
f 320/362/320 354/397/354 355/398/355
f 320/362/320 355/398/355 321/363/321
f 321/363/321 355/398/355 356/399/356
f 321/363/321 356/399/356 322/364/322
f 322/364/322 356/399/356 357/400/357
f 322/364/322 357/400/357 323/365/323
f 323/365/323 357/400/357 358/401/358
f 323/365/323 358/401/358 324/366/324
f 324/366/324 358/401/358 359/402/359
f 324/366/324 359/402/359 325/367/325
f 325/367/325 359/402/359 360/403/360
f 325/367/325 360/403/360 326/368/326
f 326/368/326 360/403/360 361/404/361
f 326/368/326 361/404/361 327/369/327
f 327/369/327 361/404/361 362/405/362
f 327/369/327 362/405/362 328/370/328
f 328/370/328 362/405/362 363/406/363
f 328/370/328 363/406/363 329/371/329
f 329/371/329 363/406/363 364/407/364
f 329/371/329 364/407/364 330/372/330
f 330/372/330 364/407/364 365/408/365
f 330/372/330 365/408/365 331/373/331
f 331/373/331 365/408/365 366/409/366
f 331/373/331 366/409/366 332/374/332
f 332/374/332 366/409/366 367/410/367
f 332/374/332 367/410/367 333/375/333
f 333/375/333 367/410/367 368/411/368
f 333/375/333 368/411/368 334/376/334
f 334/376/334 368/411/368 369/412/369
f 334/376/334 369/412/369 335/377/335
f 335/377/335 369/412/369 370/413/370
f 335/377/335 370/413/370 336/378/336
f 336/378/336 370/413/370 371/414/371
f 336/378/336 371/414/371 337/379/337
f 337/379/337 371/414/371 372/415/372
f 337/379/337 372/415/372 338/380/338
f 338/380/338 372/415/372 373/416/373
f 338/380/338 373/416/373 339/381/339
f 339/381/339 373/416/373 374/417/374
f 339/381/339 374/417/374 340/382/340
f 340/382/340 374/417/374 375/418/375
f 340/382/340 375/418/375 341/383/341
f 341/383/341 375/418/375 342/419/342
f 341/383/341 342/419/342 308/384/308
f 342/385/342 376/420/376 377/421/377
f 342/385/342 377/421/377 343/386/343
f 343/386/343 377/421/377 378/422/378
f 343/386/343 378/422/378 344/387/344
f 344/387/344 378/422/378 379/423/379
f 344/387/344 379/423/379 345/388/345
f 345/388/345 379/423/379 380/424/380
f 345/388/345 380/424/380 346/389/346
f 346/389/346 380/424/380 381/425/381
f 346/389/346 381/425/381 347/390/347
f 347/390/347 381/425/381 382/426/382
f 347/390/347 382/426/382 348/391/348
f 348/391/348 382/426/382 383/427/383
f 348/391/348 383/427/383 349/392/349
f 349/392/349 383/427/383 384/428/384
f 349/392/349 384/428/384 350/393/350
f 350/393/350 384/428/384 385/429/385
f 350/393/350 385/429/385 351/394/351
f 351/394/351 385/429/385 386/430/386
f 351/394/351 386/430/386 352/395/352
f 352/395/352 386/430/386 387/431/387
f 352/395/352 387/431/387 353/396/353
f 353/396/353 387/431/387 388/432/388
f 353/396/353 388/432/388 354/397/354
f 354/397/354 388/432/388 389/433/389
f 354/397/354 389/433/389 355/398/355
f 355/398/355 389/433/389 390/434/390
f 355/398/355 390/434/390 356/399/356
f 356/399/356 390/434/390 391/435/391
f 356/399/356 391/435/391 357/400/357
f 357/400/357 391/435/391 392/436/392
f 357/400/357 392/436/392 358/401/358
f 358/401/358 392/436/392 393/437/393
f 358/401/358 393/437/393 359/402/359
f 359/402/359 393/437/393 394/438/394
f 359/402/359 394/438/394 360/403/360
f 360/403/360 394/438/394 395/439/395
f 360/403/360 395/439/395 361/404/361
f 361/404/361 395/439/395 396/440/396
f 361/404/361 396/440/396 362/405/362
f 362/405/362 396/440/396 397/441/397
f 362/405/362 397/441/397 363/406/363
f 363/406/363 397/441/397 398/442/398
f 363/406/363 398/442/398 364/407/364
f 364/407/364 398/442/398 399/443/399
f 364/407/364 399/443/399 365/408/365
f 365/408/365 399/443/399 400/444/400
f 365/408/365 400/444/400 366/409/366
f 366/409/366 400/444/400 401/445/401
f 366/409/366 401/445/401 367/410/367
f 367/410/367 401/445/401 402/446/402
f 367/410/367 402/446/402 368/411/368
f 368/411/368 402/446/402 403/447/403
f 368/411/368 403/447/403 369/412/369
f 369/412/369 403/447/403 404/448/404
f 369/412/369 404/448/404 370/413/370
f 370/413/370 404/448/404 405/449/405
f 370/413/370 405/449/405 371/414/371
f 371/414/371 405/449/405 406/450/406
f 371/414/371 406/450/406 372/415/372
f 372/415/372 406/450/406 407/451/407
f 372/415/372 407/451/407 373/416/373
f 373/416/373 407/451/407 408/452/408
f 373/416/373 408/452/408 374/417/374
f 374/417/374 408/452/408 409/453/409
f 374/417/374 409/453/409 375/418/375
f 375/418/375 409/453/409 376/454/376
f 375/418/375 376/454/376 342/419/342
f 376/420/376 410/455/410 411/456/411
f 376/420/376 411/456/411 377/421/377
f 377/421/377 411/456/411 412/457/412
f 377/421/377 412/457/412 378/422/378
f 378/422/378 412/457/412 413/458/413
f 378/422/378 413/458/413 379/423/379
f 379/423/379 413/458/413 414/459/414
f 379/423/379 414/459/414 380/424/380
f 380/424/380 414/459/414 415/460/415
f 380/424/380 415/460/415 381/425/381
f 381/425/381 415/460/415 416/461/416
f 381/425/381 416/461/416 382/426/382
f 382/426/382 416/461/416 417/462/417
f 382/426/382 417/462/417 383/427/383
f 383/427/383 417/462/417 418/463/418
f 383/427/383 418/463/418 384/428/384
f 384/428/384 418/463/418 419/464/419
f 384/428/384 419/464/419 385/429/385
f 385/429/385 419/464/419 420/465/420
f 385/429/385 420/465/420 386/430/386
f 386/430/386 420/465/420 421/466/421
f 386/430/386 421/466/421 387/431/387
f 387/431/387 421/466/421 422/467/422
f 387/431/387 422/467/422 388/432/388
f 388/432/388 422/467/422 423/468/423
f 388/432/388 423/468/423 389/433/389
f 389/433/389 423/468/423 424/469/424
f 389/433/389 424/469/424 390/434/390
f 390/434/390 424/469/424 425/470/425
f 390/434/390 425/470/425 391/435/391
f 391/435/391 425/470/425 426/471/426
f 391/435/391 426/471/426 392/436/392
f 392/436/392 426/471/426 427/472/427
f 392/436/392 427/472/427 393/437/393
f 393/437/393 427/472/427 428/473/428
f 393/437/393 428/473/428 394/438/394
f 394/438/394 428/473/428 429/474/429
f 394/438/394 429/474/429 395/439/395
f 395/439/395 429/474/429 430/475/430
f 395/439/395 430/475/430 396/440/396
f 396/440/396 430/475/430 431/476/431
f 396/440/396 431/476/431 397/441/397
f 397/441/397 431/476/431 432/477/432
f 397/441/397 432/477/432 398/442/398
f 398/442/398 432/477/432 433/478/433
f 398/442/398 433/478/433 399/443/399
f 399/443/399 433/478/433 434/479/434
f 399/443/399 434/479/434 400/444/400
f 400/444/400 434/479/434 435/480/435
f 400/444/400 435/480/435 401/445/401
f 401/445/401 435/480/435 436/481/436
f 401/445/401 436/481/436 402/446/402
f 402/446/402 436/481/436 437/482/437
f 402/446/402 437/482/437 403/447/403
f 403/447/403 437/482/437 438/483/438
f 403/447/403 438/483/438 404/448/404
f 404/448/404 438/483/438 439/484/439
f 404/448/404 439/484/439 405/449/405
f 405/449/405 439/484/439 440/485/440
f 405/449/405 440/485/440 406/450/406
f 406/450/406 440/485/440 441/486/441
f 406/450/406 441/486/441 407/451/407
f 407/451/407 441/486/441 442/487/442
f 407/451/407 442/487/442 408/452/408
f 408/452/408 442/487/442 443/488/443
f 408/452/408 443/488/443 409/453/409
f 409/453/409 443/488/443 410/489/410
f 409/453/409 410/489/410 376/454/376
f 410/455/410 444/490/444 445/491/445
f 410/455/410 445/491/445 411/456/411
f 411/456/411 445/491/445 446/492/446
f 411/456/411 446/492/446 412/457/412
f 412/457/412 446/492/446 447/493/447
f 412/457/412 447/493/447 413/458/413
f 413/458/413 447/493/447 448/494/448
f 413/458/413 448/494/448 414/459/414
f 414/459/414 448/494/448 449/495/449
f 414/459/414 449/495/449 415/460/415
f 415/460/415 449/495/449 450/496/450
f 415/460/415 450/496/450 416/461/416
f 416/461/416 450/496/450 451/497/451
f 416/461/416 451/497/451 417/462/417
f 417/462/417 451/497/451 452/498/452
f 417/462/417 452/498/452 418/463/418
f 418/463/418 452/498/452 453/499/453
f 418/463/418 453/499/453 419/464/419
f 419/464/419 453/499/453 454/500/454
f 419/464/419 454/500/454 420/465/420
f 420/465/420 454/500/454 455/501/455
f 420/465/420 455/501/455 421/466/421
f 421/466/421 455/501/455 456/502/456
f 421/466/421 456/502/456 422/467/422
f 422/467/422 456/502/456 457/503/457
f 422/467/422 457/503/457 423/468/423
f 423/468/423 457/503/457 458/504/458
f 423/468/423 458/504/458 424/469/424
f 424/469/424 458/504/458 459/505/459
f 424/469/424 459/505/459 425/470/425
f 425/470/425 459/505/459 460/506/460
f 425/470/425 460/506/460 426/471/426
f 426/471/426 460/506/460 461/507/461
f 426/471/426 461/507/461 427/472/427
f 427/472/427 461/507/461 462/508/462
f 427/472/427 462/508/462 428/473/428
f 428/473/428 462/508/462 463/509/463
f 428/473/428 463/509/463 429/474/429
f 429/474/429 463/509/463 464/510/464
f 429/474/429 464/510/464 430/475/430
f 430/475/430 464/510/464 465/511/465
f 430/475/430 465/511/465 431/476/431
f 431/476/431 465/511/465 466/512/466
f 431/476/431 466/512/466 432/477/432
f 432/477/432 466/512/466 467/513/467
f 432/477/432 467/513/467 433/478/433
f 433/478/433 467/513/467 468/514/468
f 433/478/433 468/514/468 434/479/434
f 434/479/434 468/514/468 469/515/469
f 434/479/434 469/515/469 435/480/435
f 435/480/435 469/515/469 470/516/470
f 435/480/435 470/516/470 436/481/436
f 436/481/436 470/516/470 471/517/471
f 436/481/436 471/517/471 437/482/437
f 437/482/437 471/517/471 472/518/472
f 437/482/437 472/518/472 438/483/438
f 438/483/438 472/518/472 473/519/473
f 438/483/438 473/519/473 439/484/439
f 439/484/439 473/519/473 474/520/474
f 439/484/439 474/520/474 440/485/440
f 440/485/440 474/520/474 475/521/475
f 440/485/440 475/521/475 441/486/441
f 441/486/441 475/521/475 476/522/476
f 441/486/441 476/522/476 442/487/442
f 442/487/442 476/522/476 477/523/477
f 442/487/442 477/523/477 443/488/443
f 443/488/443 477/523/477 444/524/444
f 443/488/443 444/524/444 410/489/410
f 444/490/444 478/525/478 479/526/479
f 444/490/444 479/526/479 445/491/445
f 445/491/445 479/526/479 480/527/480
f 445/491/445 480/527/480 446/492/446
f 446/492/446 480/527/480 481/528/481
f 446/492/446 481/528/481 447/493/447
f 447/493/447 481/528/481 482/529/482
f 447/493/447 482/529/482 448/494/448
f 448/494/448 482/529/482 483/530/483
f 448/494/448 483/530/483 449/495/449
f 449/495/449 483/530/483 484/531/484
f 449/495/449 484/531/484 450/496/450
f 450/496/450 484/531/484 485/532/485
f 450/496/450 485/532/485 451/497/451
f 451/497/451 485/532/485 486/533/486
f 451/497/451 486/533/486 452/498/452
f 452/498/452 486/533/486 487/534/487
f 452/498/452 487/534/487 453/499/453
f 453/499/453 487/534/487 488/535/488
f 453/499/453 488/535/488 454/500/454
f 454/500/454 488/535/488 489/536/489
f 454/500/454 489/536/489 455/501/455
f 455/501/455 489/536/489 490/537/490
f 455/501/455 490/537/490 456/502/456
f 456/502/456 490/537/490 491/538/491
f 456/502/456 491/538/491 457/503/457
f 457/503/457 491/538/491 492/539/492
f 457/503/457 492/539/492 458/504/458
f 458/504/458 492/539/492 493/540/493
f 458/504/458 493/540/493 459/505/459
f 459/505/459 493/540/493 494/541/494
f 459/505/459 494/541/494 460/506/460
f 460/506/460 494/541/494 495/542/495
f 460/506/460 495/542/495 461/507/461
f 461/507/461 495/542/495 496/543/496
f 461/507/461 496/543/496 462/508/462
f 462/508/462 496/543/496 497/544/497
f 462/508/462 497/544/497 463/509/463
f 463/509/463 497/544/497 498/545/498
f 463/509/463 498/545/498 464/510/464
f 464/510/464 498/545/498 499/546/499
f 464/510/464 499/546/499 465/511/465
f 465/511/465 499/546/499 500/547/500
f 465/511/465 500/547/500 466/512/466
f 466/512/466 500/547/500 501/548/501
f 466/512/466 501/548/501 467/513/467
f 467/513/467 501/548/501 502/549/502
f 467/513/467 502/549/502 468/514/468
f 468/514/468 502/549/502 503/550/503
f 468/514/468 503/550/503 469/515/469
f 469/515/469 503/550/503 504/551/504
f 469/515/469 504/551/504 470/516/470
f 470/516/470 504/551/504 505/552/505
f 470/516/470 505/552/505 471/517/471
f 471/517/471 505/552/505 506/553/506
f 471/517/471 506/553/506 472/518/472
f 472/518/472 506/553/506 507/554/507
f 472/518/472 507/554/507 473/519/473
f 473/519/473 507/554/507 508/555/508
f 473/519/473 508/555/508 474/520/474
f 474/520/474 508/555/508 509/556/509
f 474/520/474 509/556/509 475/521/475
f 475/521/475 509/556/509 510/557/510
f 475/521/475 510/557/510 476/522/476
f 476/522/476 510/557/510 511/558/511
f 476/522/476 511/558/511 477/523/477
f 477/523/477 511/558/511 478/559/478
f 477/523/477 478/559/478 444/524/444
f 478/525/478 512/560/512 513/561/513
f 478/525/478 513/561/513 479/526/479
f 479/526/479 513/561/513 514/562/514
f 479/526/479 514/562/514 480/527/480
f 480/527/480 514/562/514 515/563/515
f 480/527/480 515/563/515 481/528/481
f 481/528/481 515/563/515 516/564/516
f 481/528/481 516/564/516 482/529/482
f 482/529/482 516/564/516 517/565/517
f 482/529/482 517/565/517 483/530/483
f 483/530/483 517/565/517 518/566/518
f 483/530/483 518/566/518 484/531/484
f 484/531/484 518/566/518 519/567/519
f 484/531/484 519/567/519 485/532/485
f 485/532/485 519/567/519 520/568/520
f 485/532/485 520/568/520 486/533/486
f 486/533/486 520/568/520 521/569/521
f 486/533/486 521/569/521 487/534/487
f 487/534/487 521/569/521 522/570/522
f 487/534/487 522/570/522 488/535/488
f 488/535/488 522/570/522 523/571/523
f 488/535/488 523/571/523 489/536/489
f 489/536/489 523/571/523 524/572/524
f 489/536/489 524/572/524 490/537/490
f 490/537/490 524/572/524 525/573/525
f 490/537/490 525/573/525 491/538/491
f 491/538/491 525/573/525 526/574/526
f 491/538/491 526/574/526 492/539/492
f 492/539/492 526/574/526 527/575/527
f 492/539/492 527/575/527 493/540/493
f 493/540/493 527/575/527 528/576/528
f 493/540/493 528/576/528 494/541/494
f 494/541/494 528/576/528 529/577/529
f 494/541/494 529/577/529 495/542/495
f 495/542/495 529/577/529 530/578/530
f 495/542/495 530/578/530 496/543/496
f 496/543/496 530/578/530 531/579/531
f 496/543/496 531/579/531 497/544/497
f 497/544/497 531/579/531 532/580/532
f 497/544/497 532/580/532 498/545/498
f 498/545/498 532/580/532 533/581/533
f 498/545/498 533/581/533 499/546/499
f 499/546/499 533/581/533 534/582/534
f 499/546/499 534/582/534 500/547/500
f 500/547/500 534/582/534 535/583/535
f 500/547/500 535/583/535 501/548/501
f 501/548/501 535/583/535 536/584/536
f 501/548/501 536/584/536 502/549/502
f 502/549/502 536/584/536 537/585/537
f 502/549/502 537/585/537 503/550/503
f 503/550/503 537/585/537 538/586/538
f 503/550/503 538/586/538 504/551/504
f 504/551/504 538/586/538 539/587/539
f 504/551/504 539/587/539 505/552/505
f 505/552/505 539/587/539 540/588/540
f 505/552/505 540/588/540 506/553/506
f 506/553/506 540/588/540 541/589/541
f 506/553/506 541/589/541 507/554/507
f 507/554/507 541/589/541 542/590/542
f 507/554/507 542/590/542 508/555/508
f 508/555/508 542/590/542 543/591/543
f 508/555/508 543/591/543 509/556/509
f 509/556/509 543/591/543 544/592/544
f 509/556/509 544/592/544 510/557/510
f 510/557/510 544/592/544 545/593/545
f 510/557/510 545/593/545 511/558/511
f 511/558/511 545/593/545 512/594/512
f 511/558/511 512/594/512 478/559/478
f 546/595/546 513/561/513 512/560/512
f 546/596/546 514/562/514 513/561/513
f 546/597/546 515/563/515 514/562/514
f 546/598/546 516/564/516 515/563/515
f 546/599/546 517/565/517 516/564/516
f 546/600/546 518/566/518 517/565/517
f 546/601/546 519/567/519 518/566/518
f 546/602/546 520/568/520 519/567/519
f 546/603/546 521/569/521 520/568/520
f 546/604/546 522/570/522 521/569/521
f 546/605/546 523/571/523 522/570/522
f 546/606/546 524/572/524 523/571/523
f 546/607/546 525/573/525 524/572/524
f 546/608/546 526/574/526 525/573/525
f 546/609/546 527/575/527 526/574/526
f 546/610/546 528/576/528 527/575/527
f 546/611/546 529/577/529 528/576/528
f 546/612/546 530/578/530 529/577/529
f 546/613/546 531/579/531 530/578/530
f 546/614/546 532/580/532 531/579/531
f 546/615/546 533/581/533 532/580/532
f 546/616/546 534/582/534 533/581/533
f 546/617/546 535/583/535 534/582/534
f 546/618/546 536/584/536 535/583/535
f 546/619/546 537/585/537 536/584/536
f 546/620/546 538/586/538 537/585/537
f 546/621/546 539/587/539 538/586/538
f 546/622/546 540/588/540 539/587/539
f 546/623/546 541/589/541 540/588/540
f 546/624/546 542/590/542 541/589/541
f 546/625/546 543/591/543 542/590/542
f 546/626/546 544/592/544 543/591/543
f 546/627/546 545/593/545 544/592/544
f 546/628/546 512/594/512 545/593/545
usemtl shortBox
f 547/629/547 548/630/547 549/1/547
f 549/1/547 550/595/547 547/629/547
f 551/595/548 552/629/548 553/630/548
f 553/630/548 554/1/548 551/595/548
f 547/595/549 550/629/550 552/630/549
f 552/630/549 551/1/551 547/595/549
f 550/595/552 549/629/553 553/630/552
f 553/630/552 552/1/554 550/595/552
f 549/595/555 548/629/556 554/630/555
f 554/630/555 553/1/557 549/595/555
f 548/595/558 547/629/558 551/630/558
f 551/630/558 554/1/558 548/595/558
usemtl floor.004
f 555/595/1 556/595/1 557/595/1
f 557/595/1 558/595/1 555/595/1
usemtl ceiling.004
f 559/595/546 560/595/546 561/595/546
f 561/595/546 562/595/546 559/595/546
usemtl backWall.004
f 563/595/559 564/595/559 565/595/559
f 565/595/559 566/595/559 563/595/559
usemtl rightWall.004
f 567/595/560 568/595/560 569/595/560
f 569/595/560 570/595/560 567/595/560
usemtl leftWall.004
f 571/595/561 572/595/562 573/595/563
f 573/595/563 574/595/564 571/595/561
usemtl light.004
f 575/595/546 576/595/546 577/595/546
f 577/595/546 578/595/546 575/595/546
