# Blender 5.0.1
# www.blender.org
mtllib CornellBox-Empty-CO.mtl
o CornellBox-Empty-CO
v -1.010000 0.000000 0.990000
v 1.000000 0.000000 0.990000
v 1.000000 -0.000000 -1.040000
v -0.990000 -0.000000 -1.040000
v -1.020000 1.990000 0.990000
v -1.020000 1.990000 -1.040000
v 1.000000 1.990000 -1.040000
v 1.000000 1.990000 0.990000
v -0.990000 -0.000000 -1.040000
v 1.000000 -0.000000 -1.040000
v 1.000000 1.990000 -1.040000
v -1.020000 1.990000 -1.040000
v 1.000000 -0.000000 -1.040000
v 1.000000 0.000000 0.990000
v 1.000000 1.990000 0.990000
v 1.000000 1.990000 -1.040000
v -1.010000 0.000000 0.990000
v -0.990000 -0.000000 -1.040000
v -1.020000 1.990000 -1.040000
v -1.020000 1.990000 0.990000
v -0.240000 1.980000 0.160000
v -0.240000 1.980000 -0.220000
v 0.230000 1.980000 -0.220000
v 0.230000 1.980000 0.160000
vn -0.0000 1.0000 -0.0000
vn -0.0000 -1.0000 -0.0000
vn -0.0000 -0.0000 1.0000
vn -1.0000 -0.0000 -0.0000
vn 1.0000 0.0050 -0.0000
vn 0.9998 0.0151 0.0099
s 0
usemtl floor
f 2//1 4//1 1//1
f 2//1 3//1 4//1
usemtl ceiling
f 6//2 8//2 5//2
f 6//2 7//2 8//2
usemtl backWall
f 9//3 11//3 12//3
f 9//3 10//3 11//3
usemtl rightWall
f 14//4 16//4 13//4
f 14//4 15//4 16//4
usemtl leftWall
f 17//5 19//5 20//5
f 17//6 18//6 19//6
usemtl light
f 22//2 24//2 21//2
f 22//2 23//2 24//2
